<?xml version="1.0" encoding="utf-8"?>
<!-- Generator: Adobe Illustrator 24.2.3, SVG Export Plug-In . SVG Version: 6.00 Build 0)  -->
<svg version="1.1" id="Layer_1" xmlns="http://www.w3.org/2000/svg" xmlns:xlink="http://www.w3.org/1999/xlink" x="0px" y="0px"
	 viewBox="0 0 2599 1733" style="enable-background:new 0 0 2599 1733;" xml:space="preserve">

<g>
	<path d="M342.74,518.33c4.57,0,5.13,1.66,9.05,0c3.92-1.64,15.48-9.28,19.4-10.33c3.91-1.04,6.43,0.34,0.66,3.56
		c-5.79,3.21-17.36,10.17-15.29,9.64c2.05-0.53,7.92-3.03,16.22-6.95c8.3-3.91,7.54-2.17,9.68-6.34c2.15-4.16,3.27-6.34,3.27-6.34
		s13.14,13.46,14.36,13.99c1.21,0.52,1.69-0.09,2.34-1.74c0.65-1.66,2.05-4,3.92-3.21c1.86,0.79,0.27,3.99,1.39,4.43
		c1.12,0.43,2.98-0.08,6.44-1.21c3.45-1.13,1.68-3.64,1.68-3.64s-0.37-0.1,3.64-0.44c4.01-0.34,16.59,4.26,20.32,5.73
		c3.73,1.48,15.02,2.7,18.19,3.73c3.16,1.05,4.37-1.82,8.76,0.52c4.38,2.34,7.65,5.47,4.38,7.12c-3.26,1.66-11.47,2.87-7.27,3.91
		c4.18,1.04,10.54,2.35,16.6,2.17c6.06-0.18,16.96-2.43,20.32-2.43c3.36,0,5.41,2.08,8.58,7.38c3.17,5.3,5.68,7.38,6.89,7.81
		c1.21,0.43-1.21-2.52-0.56-5.12c0.66-2.61-0.65-7.73-1.39-9.46c-0.74-1.74,0-2.61-1.49-5.13c-1.48-2.51-3.91-2.08,0.57-4.25
		c4.48-2.17,7.55-5.38,12.96-4.69c5.4,0.69,6.9,7.56,11.56,8.07c4.67,0.53,5.51,2.34,13.52,2.96c8.02,0.61,4.67,0.09,13.62,0.7
		c8.94,0.61,5.69-0.97,7.55-5.56c1.87-4.61,3.92-5.48,6.06-5.3c2.15,0.17,9.69,1.21,9.69,2.17c0,0.95-3.17,5.89-1.58,8.33
		c1.58,2.43,8.03,6.43,8.03,6.43s-1.4-5.56-1.4-6.17c0-0.61-0.47-4.94,0.47-5.73c0.94-0.79,6.25,0.43,9.6-6.08
		c3.35-6.51-2.25-6.17-2.25-6.17s-2.05,0.1-1.03-2.6c1.03-2.7,6.99-4.34,6.99-4.34s0.38,1.21-0.38-0.97
		c-0.74-2.16-4.65-1.73-8.85-1.99c-4.2-0.25-7.08-0.86-7.83-4.43c-0.75-3.56-1.02-11.03-1.02-16.15c0-5.12,4.11-3.3,4.85-6.16
		c0.75-2.86-0.19-16.84-1.21-19.71c-1.03-2.86,1.48-9.03,2.06-13.11c0.54-4.08,4.75-2.26,4.75-2.26c-0.75-1.39,1.2-5.3,6.8-6.94
		c5.6-1.65,16.23,0.08,16.23,0.08s-0.94,0.09-3.55,3.48c-2.61,3.39-0.93,9.39-4.85,13.63c-3.9,4.26-13.89,2.87-13.89,2.87
		s3.07,7.03,1.77,9.28c-1.31,2.26-2.14,6.87-2.14,6.87s8.76,2.43,9.23,7.98c0.47,5.56,4.84,6.51,5.87,11.63
		c1.02,5.12-4.29,9.38-3.17,10.16c1.12,0.79,1.49,1.13,4.67,1.3c3.16,0.17,7.45,0.78,7.45,0.78s-1.77,2.61-0.19,5.39
		c1.59,2.78,0.38,4.52,0.56,7.47c0.19,2.95,1.96,5.47,2.7,4.95c0.75-0.52,4.21-8.08,4.95-11.46c0.74-3.39,1.3-5.21,2.79-5.21
		c1.49,0,6.53,4.61,7.09,6.26c0.57,1.65,0.93,3.91-1.86,8.42c-2.8,4.52-2.52,6.6-0.09,8.34c2.41,1.73,2.52,1.22,6.89,3.3
		c4.38,2.08,3.55,1.9,6.25,1.12c2.71-0.78-1.12-7.64-0.84-7.81c0.29-0.18,6.44-0.87,5.05-4.35c-1.4-3.48-2.81-5.21,0.08-6.94
		c2.9-1.74,4.94-3.12,4.94-3.12c-1.21-2.17-1.58-2.34-3.63-8.17c-2.05-5.82,1.76-4.25,9.8-3.65c8.01,0.62,8.38,3.39,12.67,5.56
		c4.29,2.17,1.58,2.95,2.98,6.43c1.4,3.47-3.54,3.99-3.54,3.99s-3.26,0.61-2.52,3.3c0.75,2.7,2.24,5.9,4.58,10.08
		c2.33,4.17-0.65,7.03-4.3,10.42c-3.63,3.39-7.93,4.35-12.21,4.43c-4.3,0.08-6.16,1.82-6.43,0.61c-0.29-1.21-2.34-2.34-4.66-1.82
		c-2.34,0.52-7.66,2.61-5.79,3.3c1.86,0.7,6.8,0.52,4.75,4.35c-2.06,3.82-3.83,3.82-7.93,3.39c-4.1-0.43-7.92-0.43-10.54-0.61
		c-2.6-0.16-15.48-0.95-15.48-0.95s8.69,5.3,15.58,7.47c6.89,2.17,14.18,0.87,14.18,0.87s-2.8,5.21-6.17,10.76
		c-3.35,5.56-6.53,3.13-9.31,3.48c-2.81,0.34-4.48,2.61-9.7,3.3c-5.23,0.7-16.14-1.48-14.46-0.69c1.68,0.79,2.43,2.16,5.41,2.61
		c2.99,0.43,4.85,0.95,7.46,3.12c2.61,2.17-1.68,2.7-5.12,3.3c-3.46,0.61-4.39,1.22-5.97,3.39c-1.59,2.18-7.47,10.59-9.33,13.2
		c-1.87,2.61-3.54,6.94-4.29,12.07c-0.75,5.13-5.12,11.29-3.17,12.59c1.95,1.3,9.31,1.48,12.4,3.39c3.07,1.91,6.53,11.29,8.85,14.85
		c2.34,3.56,4.2,6.26,6.8,3.48c2.61-2.78,7.75-2.08,12.59-0.34c4.85,1.74,14.73,8.59,17.82,11.63c3.07,3.04,8.48,2.53,14.54,3.39
		c6.06,0.87,6.75,3.15,6.75,3.15s6.31,0.33,3.71,3.02c-2.61,2.69-3.36,0.08-0.75,4.6c2.62,4.52,2.53,10.59,1.78,13.63
		c-0.75,3.04,8.35,1.51,12.18,3.76c3.82,2.25,4.03,11.44,6,10.31c1.96-1.13,5.21-3.13,5.59-5.56c0.38-2.43-0.09-5.64-0.47-9.81
		c-0.38-4.17-1.4-11.81-3.45-14.85c-2.05-3.04,3.7-4.25,2.76-5.56c-0.92-1.3-0.71-3.9,3.21-4.95c3.92-1.03,4.2-0.08,6.34-1.74
		c2.15-1.65,2.52-9.37,2.89-12.15c0.39-2.78-0.65-8.77-1.57-11.03c-0.93-2.25-4.76-9.47-6.15-11.03c-1.42-1.57-3.17-2,0.66-6.86
		c3.81-4.86,1.57-3.82,1.02-5.3c-0.56-1.48-1.39-5.12-2.14-8.42c-0.76-3.3,1.58-6.95,0.18-11.64c-1.4-4.69-2.89-3.64-2.61-4.69
		c0.28-1.04,9.13-0.78,15.67-0.08c6.53,0.69,9.13-0.7,10.99-0.7c1.87,0,5.23,1.83,8.86,4.17c3.63,2.34,5.03,1.74,6.9,4.6
		c1.86,2.86,2.89,4.43,6.7,4.25c3.83-0.18,7.94,1.65,7.94,1.65s-2.71,1.57-2.24,6.69c0.46,5.11-0.57,8.85-0.48,10.94
		c0.09,2.08,1.13,2.17,2.89,2.43c1.77,0.26,6.54,4.51,11.47,6.25c4.94,1.74,6.25,1.21,7.83-2.78c1.6-3.99,1.97-3.65,3.93-3.9
		c1.95-0.26,2.61,0.43,3.44-0.43c0.84-0.87-1.49-2.61-0.94-5.38c0.56-2.79,3.26-6.43,5.51-8.52c2.23-2.08,3.82,2.09,5.78,5.91
		c1.96,3.82,8.76,16.23,10.72,20.31c1.95,4.09,4.48,4.35,2.14,8.17c-2.33,3.81-3.45,5.46,0.19,7.2c3.63,1.74,6.9,4.78,6.63,7.64
		c-0.3,2.87-1.04,2.95,0.18,3.74c1.21,0.78,5.59-1.57,8.76-0.17c3.17,1.39,6.99,2.7,9.23,4.94c2.23,2.26,2.06,3.04-1.12,4.16
		c-3.17,1.13-6.35,2.26-7.93,3.21c-1.59,0.96-4.1,2.79-4.01,4.26c0.1,1.47-0.66,3.9,1.87,1.99c2.52-1.91,6.63-3.82,9.6-4.69
		c2.98-0.86,0.75-0.09,3.45-0.43c2.71-0.34,5.31,1.3,9.05,2.34c3.71,1.05,2.7,3.39,1.76,5.56c-0.93,2.17-1.76,4.25-0.28,6.69
		c1.5,2.43-0.65,4.6-3.92,7.55c-3.26,2.95-5.68,3.39-10.99,4.08c-5.31,0.7-7.85,3.9-11.57,7.37c-3.72,3.48-5.59,2.61-11,2.87
		c-5.41,0.26-3.26-2.69-4.94-2.08c-1.69,0.62-3.82,2.44-7.27,2.79c-3.46,0.34-15.12,0.52-19.59,1.82c-4.47,1.3-3.07,4.34-4.19,6.85
		c-1.12,2.52-2.89,1.48-6.25,2.61c-3.36,1.13-7.37,6.08-11.28,12.86c-3.93,6.77-9.23,10.94-9.23,10.94
		c1.12-0.26,6.62-3.65,9.32-6.95c2.71-3.3,13.99-11.11,17.44-13.54c3.44-2.44,10.9-5.99,12.68-5.48c1.78,0.53,6.17,3.91,6.17,5.65
		c0,1.74-1.31,3.12-4.48,6.07c-3.17,2.95-7.37,0-7.09,1.21c0.28,1.22,2.52,3.99,4.94,4.6c2.43,0.61,2.32,3.57,2.32,5.04
		c0,1.48-1.39,3.39,4.2,8.08c5.6,4.69,9.52,5.03,13.63,4.77c4.1-0.25,1.95,1.39,3.63,1.22c1.67-0.17,2.05-3.39,2.61-5.99
		c0.57-2.61,1.5-5.03,2.98-6.17c1.5-1.13,2.61-3.21,3.08,0.79c0.46,3.98-1.68,9.46-3.84,10.67c-2.13,1.21-1.66,2.78-1.66,3.99
		c0,1.22-2.43,1.3-8.22,4.52c-5.77,3.21-7.64,3.99-8.67,3.56c-1.02-0.44-3.17,0.52-5.96,3.04c-2.8,2.52-5.78,5.91-7.83,5.81
		c-2.07-0.08-3.83-0.95-1.03-3.82c2.79-2.87,3.74-6.85,6.53-8.25c2.8-1.39,4.1-1.21,6.44-1.21c2.33,0,1.21-1.39,3.07-2.77
		c1.86-1.39-1.4-0.97-4.57-1.48c-3.17-0.52-0.74-3.3-0.74-3.3l-3.27,1.74c0,0-4.94,2.61-6.25,2.79c-1.3,0.16-1.02,1.03-1.39,1.56
		c-0.38,0.53-5.03,0.87-5.03,0.87s-2.43,4.94-6.07,5.64c-3.63,0.71-1.11,0.44-3.73,1.56c-2.61,1.13-2.13-1.3-2.7-0.61
		c-0.56,0.71-1.03,1.31-3.91,3.48c-2.89,2.18-4.58,2.87-6.62,10.77c-2.06,7.9,0.37,10.76,0.28,11.99c-0.09,1.21-3.64-0.79-4.66,0.16
		c-1.04,0.96-3.37,3.91-6.44,4.78s-9.13,2.43-10.54,3.91c-1.4,1.48-1.49,3.56-2.15,6.59c-0.65,3.05-4.29,10.17-4.29,10.17
		s0.84-2.87-1.68-4.95c-2.52-2.08-2.13-3.99-2.13-3.99s-0.57,2.86,0.37,5.81c0.94,2.95,2.79,5.91,1.96,9.12
		c-0.85,3.21-2.44,7.21-4.38,8.34c-1.97,1.13,0.46-2.17,0.46-4.77c0-2.61-1.3-2.78-2.15-4.08c-0.84-1.31-0.84-4.61,0.65-9.04
		c1.5-4.43-1.39-1.73-3.07,1.22c-1.67,2.95-2.88,8.42-0.28,11.99c2.61,3.56-1.67,3.21,0.1,8.33c1.76,5.12-2.14,7.64-1.41,8.43
		c0.75,0.78,2.8-0.34,3.74,2.16c0.93,2.53-1.86,1.39-2.8,2.09c-0.94,0.7-0.48,1.65,0.09,3.04c0.56,1.38,1.68,0.51,1.21,0.95
		c-0.47,0.43-1.78,2.16-4.2,2.95c-2.42,0.78-2.62-0.44-4.11,1.3c-1.48,1.73-2.6,3.3-4.19,5.29c-1.58,2-2.7,1.31-4.38,2.7
		c-1.68,1.39-2.33,2.52-4.39,4.26c-2.04,1.74-6.71,4.43-9.22,7.81c-2.52,3.39-1.87,4.26-3.08,9.73c-1.21,5.46,3.08,15.02,5.79,24.06
		c2.71,9.03,3.82,6.51,3.44,9.37c-0.37,2.86-1.58,6.34-3.55,8.34c-1.94,2-3.06-1.39-5.76-3.39c-2.71-1.99-0.57-3.38-3.17-7.54
		c-2.62-4.17-2.43-5.65-2.71-8.69c-0.29-3.03-0.75-7.38-2.14-10.67c-1.4-3.31-4.39-7.48-8.86-5.82c-4.48,1.66-3.35,0.87-5.78,0.16
		c-2.44-0.69-8.85-3.29-12.13-1.56c-3.27,1.74-13.6-0.53-15.76,0c-2.15,0.52-3.74,0.7-3.74,2.18c0,1.47-0.92,1.72,2.9,2.77
		c3.82,1.04,3.26,2.17,2.99,3.82c-0.29,1.65-3.09-0.87-4.58-1.48c-1.5-0.61-2.89,1.21-5.49,1.21c-2.61,0-3.08-2.52-5.42-2.86
		c-2.33-0.35-3.26,0-5.5-0.87c-2.23-0.88-5.21-2.34-7.83-2.17c-2.61,0.18-12.68,6.86-17.44,10.42c-4.75,3.57-8.4,7.03-9.5,9.9
		c-1.12,2.87-1.22,3.13,2.61,7.39c3.82,4.26,2.05,3.57,1.3,5.99c-0.75,2.43-2.98,5.38-5.68,11.63c-2.71,6.25-1.12,9.29,2.13,15.28
		c3.27,5.99,6.17,10.33,8.77,12.85c2.62,2.52,4.47,5.21,6.71,6.17c2.24,0.95,2.7,1.3,3.73,2.34c1.03,1.05,0.75,1.48,4.3,0.53
		c3.53-0.95,6.14-2.34,8.67-2.34c2.51,0,4.85,0.08,6.25,1.39c1.39,1.3,1.58,0.53,1.58-0.18c0-0.69,1.12-3.3,1.49-3.99
		c0.37-0.7,3.73-5.47,4.29-8.08c0.56-2.61,0.56-7.82,3.83-8.17c3.25-0.34,10.25-1.99,16.59-1.56c6.34,0.43,3.54,3.56,1.87,6.85
		c-1.69,3.3-2.34,3.65-2.34,6.17c0,2.53,0.75,2.53-1.29,4c-2.05,1.48-0.75-0.87-1.59,0.61c-0.84,1.48-3.82,3.56-3.45,3.21
		c0.37-0.35,1.3,2.51,1.3,3.9c0,1.39-0.28,2.08-0.28,5.48c0,3.38-6.62,6.85-6.62,6.85s2.43,1.39,5.97,1.39c3.55,0,7.83,0,11.56,1.74
		c3.73,1.73,10.81-1.39,16.04,1.21c5.22,2.61,3.36,4.16,3.72,6.6c0.38,2.43,0.93,10.76,0.57,12.67c-0.39,1.91-2.81,7.29-4.12,11.12
		c-1.3,3.81,3.73,6.6,8.4,9.72c4.66,3.12,8.76,4.52,11.19,5.21c2.4,0.7,6.89-3.65,15.1-3.12c8.2,0.52,10.99,7.47,10.99,7.47
		s0.93-4.34,4.67-10.25c3.74-5.9,3.91-7.64,8.94-9.55c5.05-1.91,6.72-2.25,14.93-4.86c8.21-2.61,6.71-0.69,10.99-0.34
		c4.3,0.34,14.18,1.21,24.07,4.16c9.88,2.95,25,3.82,30.77,6.25c5.78,2.43,8.4,9.21,14.36,14.77c5.97,5.55,13.42,10.59,16.59,13.2
		c3.17,2.61,20.89,5.04,24.81,6.6c3.91,1.56,9.32,7.98,9.69,11.81c0.37,3.82,4.29,5.73,9.69,7.99c5.41,2.26,7.09,4.87,10.64,11.81
		c3.55,6.94,2.42,8.85,7.26,10.59c4.86,1.75,38.43,10.76,46.81,14.07c8.4,3.3,19.03,12.16,21.82,13.2c2.8,1.04,7.84-0.88,10.08,0.34
		c2.24,1.22-1.31,7.81,1.49,12.5c2.8,4.69,2.98,5.04,1.3,8.51c-1.67,3.48-8.39,11.81-10.99,15.98c-2.62,4.17-8.21,6.77-11.38,8.52
		c-3.17,1.72-5.98,0-3.17,3.47c2.8,3.47,0.19,6.42-2.24,9.55c-2.43,3.12,0.19,2.77-0.57,12.85c-0.75,10.07,0,21.01-1.12,25.35
		c-1.11,4.35-7.63-3.82-15.1,5.56c-7.45,9.38-9.5,16.49-13.98,17.54c-4.48,1.04-14.92,6.26-18.46,9.55
		c-3.55,3.3-4.29,4.52-6.53,9.38c-2.23,4.85-4.47,14.76-6.9,20.84c-2.43,6.08-6.34,9.55-15.29,17.71
		c-8.96,8.17-12.87,16.5-18.66,22.93c-5.77,6.42-4.29,5.03-5.49,6.25c-3.09,3.1-15.81-5-12.53-0.52c2.43,3.3-1.37,0,0.68,3.12
		c2.05,3.13,3.55,4.34-0.93,9.9c-4.47,5.56-9.64,4.46-13.18,5.33c-3.54,0.87-8.83-3.65-9.2-1.39c-0.37,2.25-2.42,7.87-5.22,9.26
		c-2.79,1.39-10.25,3.48-10.06,4.35c3.52,16.45,10.76,18.17,3.1,17.41c-21.03-2.05-6.03-7.04-20.64,23.56
		c-2.23,4.7-4.47,2.26-4.1,7.82c0.38,5.56,0,9.72,2.99,13.2c2.98,3.48,0.93,3.3-4.11,7.98c-5.03,4.69-5.41,4-10.07,11.12
		c-4.67,7.12-9.14,6.77-7.47,12.16c1.68,5.39,2.06,13.37,4.85,21.36c2.79,7.99,8.58,6.59,17.72,12.16
		c9.13,5.55,10.26,2.6,14.73,3.99c4.48,1.39-3.17,1.74-11.2,3.12c-8.01,1.39-13.23,2.95-18.83,1.75
		c-5.59-1.22-18.82-8.86-23.31-12.17c-4.48-3.3-11.74-9.2-14.36-14.93c-2.61-5.73-4.48-11.46-7.83-19.27
		c-3.35-7.82-0.94-12.68,0.56-29.88c1.49-17.19,2.61-30.56,5.03-39.76c2.42-9.22,9.89-50.19,11.93-60.79
		c2.06-10.59,11.57-53.66,12.31-60.43c0.74-6.77,1.31-11.99,2.8-18.76c1.49-6.77,0.57-20.5,0.57-21.19c0-0.69-0.57-1.21-2.62-7.64
		c-2.04-6.43-5.4-9.03-10.06-11.81c-4.66-2.79-9.52-6.26-13.24-8.86c-3.74-2.6-8.22-6.26-11.94-10.94
		c-3.74-4.69-7.28-14.24-9.14-18.24c-1.86-3.98-8.76-17.53-15.1-26.91c-6.34-9.38-6.71-9.56-9.89-19.46
		c-3.17-9.9,2.8-10.07,3.92-15.63c1.11-5.55,4.84-11.12,8.95-18.92c4.1-7.82,9.51-10.08,12.68-17.02c3.17-6.95,0.75-6.95-0.38-13.72
		c-1.12-6.77,0.38-5.72-1.69-9.38c-2.05-3.64-3.16-8.15-5.03-9.37c-1.86-1.22-4.66-2.09-6.34-0.17c-1.68,1.9-4.66,7.46-6.53,7.81
		c-1.86,0.34-2.62-1.75-3.73-2.96c-1.12-1.21-6.53-1.21-7.65-2.43c-1.12-1.21-3.91-1.39-5.77-2.25c-1.88-0.87-9.15-4.7-11.2-6.43
		c-2.05-1.74-4.66-5.91-4.66-10.42c0-4.51-3.91-6.26-12.67-12.5c-8.77-6.26-12.5-7.13-23.14-9.73
		c-10.63-2.6-14.91-10.07-18.46-12.15c-3.54-2.08-3.17-4.34-11-3.48c-7.83,0.87-17.34-3.48-23.32-5.9
		c-5.95-2.44-16.59-4.16-21.08-7.12c-4.46-2.96-12.29-4-15.65-11.12c-3.36-7.12-2.8-4.35-1.49-10.59
		c1.3-6.26-7.65-11.46-13.06-17.36c-5.4-5.91-9.51-6.77-12.31-14.07c-2.8-7.3-6.9-6.95-12.31-12.16c-5.41-5.21-5.6-11.81-7.84-17.72
		c-2.23-5.9-17.14-14.41-17.14-14.41s3.9,9.9,5.58,13.9c1.68,3.99,5.59,13.54,10.08,20.67c4.47,7.12,8.39,8.85,12.49,15.97
		c4.1,7.12,0.19,11.46-1.31,8.69c-1.49-2.79-7.46-4-7.46-7.3c0-3.3-1.48-5.39-2.8-7.99c-1.3-2.61-7.08-5.57-12.68-10.08
		c-5.59-4.51-9.5-6.59-5.97-6.59c3.54,0,8.58,3.3,7.65,1.21c-0.93-2.08-7.27-8.51-10.26-13.03c-2.98-4.52-3.93-9.55-6.9-17.19
		c-2.98-7.64-13.98-14.94-19.4-15.45c-5.4-0.53-6.9-3.12-8.76-8.68c-1.86-5.56-2.24-11.46-4.67-15.81
		c-2.43-4.34-12.87-18.92-13.05-24.48c-0.2-5.56-3.17-21.71,0.56-30.74c3.73-9.03,2.8-29.17,2.24-33.17
		c-0.56-3.98-7.28-11.63-7.28-14.59c0-2.95,3.93-1.21,6.91-0.35c2.98,0.88,9.31,3.48,9.31,3.48s-4.84-9.03-7.82-12.15
		c-2.99-3.13-11.76-7.12-15.67-7.99c-3.93-0.86-8.95-2.25-11-5.55c-2.05-3.3-4.29-7.64-5.79-10.43c-1.48-2.77-7.84-6.07-9.31-9.03
		c-1.5-2.96-1.12-8.68-3.17-11.63c-2.05-2.95-5.04-4.69-8.4-3.48c-3.36,1.21-4.46-1.74-7.08-6.08c-2.62-4.33-8.4-6.42-10.08-6.94
		c-1.68-0.52-7.45-8.17-7.83-10.08c-0.37-1.91-9.52-11.99-12.49-14.07c-2.99-2.09-31.89-11.46-32.63-11.46
		c-0.75,0-9.15,1.21-11.38,0.52c-2.24-0.7-9.89-7.3-13.79-8.68c-3.93-1.39-6.73,1.56-8.58,5.9c-1.88,4.34-11.01,11.81-16.04,15.1
		c-5.03,3.31-9.14,3.66-8.77,1.92c0.38-1.74,0.19-4.52,1.88-8.69c1.67-4.16,2.61-5.38,7.82-7.99c5.24-2.61,5.03-2.78,2.99-2.61
		c-2.05,0.17-3.55-0.34,0.56-2.77c4.1-2.44,5.78-2.79,5.59-4.87c-0.19-2.08-8.95,2.79-14.55,7.3c-5.6,4.51-8.94,7.64-13.79,15.63
		c-4.85,7.99,0.56,5.03-3.55,10.25c-4.1,5.21-18.09,15.81-22.19,19.8c-4.11,3.99-21.07,12.85-27.98,14.94
		c-6.9,2.08-9.69,2.95-13.05,5.73c-3.36,2.77-11.74,3.64-8.95,1.74c2.8-1.92,8.02-6.26,11.57-8.35c3.53-2.08,13.05-5.9,15.85-6.94
		c2.8-1.05,10.62-5.91,14.55-10.25c3.91-4.35,6.53-9.38,9.13-13.54c2.61-4.17,3.17-6.08-2.23-4.35c-5.42,1.74-11.01,1.04-13.81,0
		c-2.8-1.04-10.08,3.3-12.68,1.39c-2.61-1.92,0.19-5.91-1.5-7.82c-1.66-1.91-7.45-0.69-11.18-1.39c-3.73-0.69-8.95-3.64-8.95-8.85
		c0-5.21-3.73-9.72-1.69-13.72c2.06-3.99,5.05-5.04,8.4-7.29c3.35-2.26,12.67-5.21,14.54-5.21c1.88,0,4.49-1.91,6.16-3.65
		c1.68-1.73-3.92-7.99-3.92-7.99s0.93-0.69,3.17-2.08c2.24-1.39,0.57-4.34-3.36-3.82c-3.92,0.52-12.31,4.53-17.53,5.9
		c-5.21,1.39-12.3,0.53-12.12-1.73c0.19-2.26,1.3-3.65-0.56-5.39c-1.85-1.74-3.36-3.65-1.49-4.51c1.87-0.87,13.43-7.3,13.43-7.3
		s4.1,4.51,8.58,5.03c4.48,0.53,13.98-7.81,13.98-7.81c-5.96-3.65-4.66-4.69-4.66-4.69s-9.7-0.17-11.94-1.57
		c-2.23-1.39-2.98-4.16-3.54-6.59c-0.56-2.43-10.07-4.35-7.45-8.35c2.61-3.98,7.45-5.38,10.63-9.37
		c3.17-3.99,5.97-11.47,15.11-15.63c9.14-4.17,20.14-7.98,24.99-11.46c4.85-3.48,7.08-0.16,8.95,0.34
		c1.86,0.53,13.43-0.51,17.9-0.51c4.48,0,5.22,5.03,6.71,6.24c1.48,1.22,40.85,2.44,40.85,2.44s33.37,0.52,40.09,2.43
		c6.71,1.91,18.83,6.94,18.83,6.94C338.83,527.29,338.18,518.33,342.74,518.33z M791.16,316.89c0,0-3.36,13.9-16.77,17.72
		c-13.43,3.82-38.06,14.59-39.17,15.28c-1.12,0.69,1.49,8.33,4.85,12.15c3.36,3.82,6.53,6.43,9.51,10.25
		c2.98,3.82,8.21,3.48,12.31,7.47c4.1,3.99,7.08,2.6,18.28,2.78c11.19,0.17,8.21,1.04,20.7,1.74c12.49,0.69,25.55,1.74,29.84,5.56
		c4.28,3.82,10.44,18.76,14.36,27.79c3.92,9.03,10.82,23.96,10.82,25.36c0,1.38-4.3,12.33-4.3,14.06c0,1.75,2.24,4.69,4.3,7.12
		c2.04,2.43,0.93,4.34,0.55,6.59c-0.37,2.26,2.24,7.99,2.62,8.69c0.38,0.69,5.96-5.56,9.51-6.6c3.54-1.04,12.31,6.26,12.31,11.29
		c0,11.41,3.11,7.53-15.48,21.01c-2.45,1.78-4.84,15.45-2.98,22.05c1.86,6.61,6.34,14.42,9.88,23.8
		c3.54,9.37,13.99,22.57,17.34,28.65c3.36,6.08,4.3,14.41,11.75,16.33c7.46,1.9,14.55,4.51,19.96,5.72
		c5.41,1.21,8.95,2.95,11.56-2.08c2.62-5.03,7.84-24.14,12.13-38.03c4.28-13.9-0.39-18.06,9.69-21.19
		c10.07-3.12,26.1-9.38,30.39-11.29c4.3-1.92,3.55-15.63,13.06-20.15c9.52-4.51,10.81-4.16,20.14-7.12
		c9.33-2.95,22.38-8.85,31.71-15.45c9.32-6.6,11.93-3.12,15.29-9.21c3.36-6.07-3.36-14.94-4.1-23.96
		c-0.75-9.03,2.98-9.55,4.84-17.72c1.88-8.16,2.8-13.54,10.08-19.1c7.28-5.56,11.18-8.67,9.89-13.89
		c-1.31-5.21-5.03-13.03-5.03-18.76c0-5.74,1.3-2.43-1.68-10.41c-2.98-7.99-2.98-9.03-0.2-16.5c2.81-7.47,10.26-5.55,9.71-8.86
		c-0.57-3.3-11.94-8.33-12.12-17.54c-0.19-9.21,2.05-11.98,3.91-14.24c1.86-2.26,20.89-17.36,22.19-18.76
		c1.3-1.39-0.37-5.21,8.95-9.72c9.32-4.51,12.49-7.46,16.04-8.85c3.55-1.39,9.14-1.21-1.68-4.35c-10.82-3.12-13.23-4.51-20.32-3.64
		c-7.08,0.87-9.5,4.86-22.19,6.08c-12.68,1.21-27.05,7.12-27.05,7.12s4.3-3.82,0.57-7.48c-3.73-3.64,9.7-15.63,11.95-17.02
		c2.22-1.38-17.54-6.25-27.8-8.15c-10.25-1.92-30.39-7.99-41.95-7.13c-11.57,0.87-28.53,0.71-34.32,2.61
		c-5.78,1.91-5.03,9.38-11.56,9.73c-6.53,0.34-18.64-3.82-27.97-2.43c-9.32,1.39-24.25,7.82-25.92,8.17
		c-1.68,0.35,5.79,4.86,10.63,5.9c4.84,1.05,11.18,11.12,11.18,11.12s-13.04-4.35-26.29-7.99c-13.25-3.65-28.73,0-34.13,1.57
		c-5.41,1.56-12.49,4.51-23.31,5.03c-10.82,0.53-23.12,9.38-29.28,13.54c-6.16,4.16-25.36,15.28-30.21,17.89
		c-4.85,2.61-2.98,3.82,2.24,5.21C785.56,316.02,791.16,316.89,791.16,316.89z M514.79,460.45c1.48,6.36,1.48,15.51-2,11.58
		c-3.48-3.94-6.34-11.93-11.93-8.69c-5.59,3.25-11.68,2.33-10.69,1.63c0.99-0.7-0.12-4.17-2.99-5.21c-2.84-1.04-4.59,0.58-7.57,2.32
		c-2.99,1.74-12.44,4.05-8.58,1.03c3.85-3.01,2.61-4.62,1.24-8.1c-1.36-3.48-11.19,2.43-16.41,6.14c-5.21,3.7-8.32,9.37-11.44,13.19
		c-3.11,3.82-0.87,6.26,3.85,7.64c4.73,1.39,12.31,2.32,5.97,4.64c-6.33,2.31-11.19,3.93-7.95,5.9c3.23,1.97,8.83,2.31,14.42,1.61
		c5.6-0.7,10.32-2.19,19.27,0.24c8.95,2.43,14.29,2.31,14.29,2.31s-3.35,2.08-9.32,3.13c-5.97,1.03-16.91,0-22.51,1.03
		c-5.58,1.05-14.41,2.54-12.17,4.63c2.23,2.09,3.98,5.32,11.68,7.76c7.71,2.44,9.08,0.12,13.68,1.27c4.61,1.16,2.12,6.37,3.36,7.18
		c1.25,0.81,9.95-0.69,18.65-2.31c8.71-1.62,5.47-3.02,12.31-4.75c6.83-1.73,7.08-6.94,11.06-8.1c3.97-1.16,1.12,2.66,5.84,3.82
		c4.73,1.16,2.12,1.51,7.22,2.32c5.1,0.81,4.1,2.78,9.08,2.43c4.98-0.34,10.81-3.7,10.07-4.29c-0.74-0.57-1.49-2.08-0.98-4.39
		c0.49-2.31-4.99,0.46-6.97,1.62c-1.99,1.16-1.86-3.13,2.35-5.21c4.24-2.08,7.98,0,10.45,0c2.48,0,0.25-7.18-4.23-8.33
		c-4.48-1.16-6.46-3.94-13.18-7.64c-6.71-3.71-3.23-5.33-5.21-10.18c-1.99-4.87-6.22-19.23-9.95-21.78
		c-3.72-2.55-7.71-1.85-11.43-4.39C514.04,450.5,513.3,454.08,514.79,460.45z M411.59,450.62c1.62,4.62,1.86,1.73-1.37,6.82
		c-3.23,5.1-1.37,6.95-3.61,10.77c-2.23,3.82-8.2,8.92-6.34,11.46c1.86,2.54,7.83,4.05,10.32,6.02c2.48,1.97,4.97,6.02,9.44,4.52
		c4.48-1.51,5.97-2.55,9.08-4.17c3.12-1.62,5.72-3.47,5.59-7.53c-0.12-4.05-0.25-6.01,1.01-5.67c1.24,0.34,3.22,2.2,4.21-0.47
		c1-2.66,2.74-6.13,4.85-8.22c2.11-2.08,8.2-4.17,11.06-6.6c2.87-2.44,7.71-5.09,9.08-7.17c1.38-2.1-2.49-3.71-4.84-4.64
		c-2.36-0.93-5.09-4.62-10.57-4.62c-5.47,0-8.45,4.16-8.21,2.31c0.25-1.85-3.73-2.78-5.96-3.59c-2.25-0.8-4.35-2.08-11.45-1.27
		c-7.08,0.81-10.04,1.28-15.67,2.89C403.39,442.85,409.98,445.97,411.59,450.62z M573.47,506.07c-0.74,1.03-3.98,2.08-5.96,4.39
		c-1.98,2.31,4.22,1.05,6.21,1.74c1.99,0.7,3.49,2.66,5.1,3.25c1.62,0.57,10.32,0.92,13.93-0.82c3.6-1.73,3.97-2.31,3.6-3.12
		c-0.38-0.82-7.45-7.76-12.68-10.54c-5.22-2.78-5.35-2.89-6.46-2.2C576.08,499.46,574.21,505.02,573.47,506.07z M549.96,451.89
		c-3.37,1.68-5.82,3.7-0.11,6.6c5.71,2.89,7.58,5.33,11.44,7.76c3.85,2.43,5.47,9.38,13.55,6.26c8.08-3.12,11.31-6.83,12.44-10.08
		c1.1-3.25-1.13-3.93-3.11-6.95c-2-3-2.48-4.28-6.59-3.82c-4.11,0.47-5.48,0.47-5.48,0.47s2.74-3.48,7.21-5.67
		c4.48-2.21,0.74-3.71,2.85-5.79c2.12-2.08-5.34-3.12-8.57-2.32c-3.24,0.82-3.36-0.23-8.71-0.46c-5.35-0.23-13.8,4.63-13.43,6.36
		c0.38,1.74,4.35,1.05,8.08,3.13c3.73,2.09,4.85,1.85,1.12,7.76c-3.72,5.9-5.72-1.39-6.96-2.32
		C552.46,451.89,553.45,450.15,549.96,451.89z M526.1,441.24c-5.58,0.53-7.47,4.39-5.35,4.98c2.11,0.58,3.48-0.58,6.83,3.01
		c3.36,3.59,6.35,5.56,7.71-0.34C536.66,442.97,534.68,440.42,526.1,441.24z M436.33,396.42c-6.23,4.98-7.45,8.92-12.3,12.05
		c-4.85,3.12-3.74,5.79-2.11,7.51c1.62,1.75,6.46-0.11,8.7-1.26c2.24-1.16,4.1-4.05,5.47-2.31c1.37,1.74,7.09-5.9,9.33-8.46
		c2.24-2.54,5.71-5.21,6.35-5.08c0.62,0.11-2.13,3.01-1.12,5.44c0.99,2.43,5.46,2.55,9.44-1.62c3.98-4.17,0.38-7.99,3.48-11.23
		c3.11-3.25,5.72-2.79-0.37-5.68c-6.09-2.89-9.95,0.35-11.2,1.86C450.76,389.13,448.52,386.7,436.33,396.42z M474.25,404.3
		c-3.53,0.16-5.09,0.7-10.94,3.24c-5.84,2.55-8.33,9.15-9.69,12.74c-1.38,3.59,0.61,3.59,5.97,5.67c5.34,2.08,12.81-0.57,14.54-5.56
		c1.75-4.99,3.87,1.16,2.87,3.71c-0.99,2.54,3.73,0.23,5.97-0.94c2.24-1.15,8.94-1.61,9.44-1.61c0.5,0-5.47,4.52-11.32,6.49
		c-5.84,1.97-10.56,3.01-12.18,3.24c-1.62,0.24,1.51,2.66,8.33,4.06c6.85,1.39,10.95-4.17,20.77-7.88c9.81-3.7,9.32-4.4,12.55-3.47
		c3.24,0.92,6.71-1.62,10.69-2.56c3.98-0.92,5.59,0.59,7.35-5.32c1.73-5.9,4.84-11.58-0.75-11.93c-5.6-0.34-5.97-0.34-6.71,6.03
		c-0.75,6.37-1.25,2.43-1.25,2.43s-3.73-5.56-5.97-8.46c-2.23-2.89-3.85-7.4-6.34-9.84c-2.48-2.43-3.61,1.04-7.46,5.33
		c-3.85,4.28-0.75,5.9,3.11,7.76c3.85,1.85,6.59,6.6,4.73,7.87c-1.87,1.28-3.98-0.23-11.07,0.58c-7.09,0.81-6.84-2.2-8.83-3.12
		c-1.99-0.93,3.35-2.89-4.24-6.02C476.25,403.6,476.75,404.18,474.25,404.3z M451.25,410.33c0.79-1.34-9.44,6.02-10.99,8.39
		c-1.56,2.37,1.56,1.97,4.66,1.85C448.02,420.45,448.65,414.78,451.25,410.33z M470.9,394.98c-2.56,1.15-2.56,2.02,1.61,2.48
		c4.17,0.47,6.6-1.39,5.72-3.12C477.37,392.6,472.95,394.05,470.9,394.98z M492.1,372.99c-2.73,0.45-10.81,3.3-11.26,4.67
		c-0.43,1.39,0.07,4.4,1.31,6.78c1.25,2.37,1.69,2.72,8.63,0.87c6.97-1.85,11.76-5.44,9.44-6.08c-2.3-0.63-3.71-1.68-5.76-1.96
		c-2.06-0.29,1.8-1.39,6.39-2.84C505.46,372.99,507.02,370.49,492.1,372.99z M468.54,376.63c-1.97,0.9-2.68,0.92,1.43,2.49
		c4.1,1.56,8.52,1.44,7.95,0.17C477.37,378.01,474.07,374.07,468.54,376.63z M484.57,365.23c-3.89,1.53-4.77,4.34-5.65,5.44
		c-0.87,1.11,4.41-0.8,6.83-1.39c2.43-0.58,2.98,0.86,5.35-1.22c2.36-2.08,7.03,0.07,11.26-0.87c4.22-0.92,4.9-3.7,3.98-6.12
		C505.4,358.63,495.7,360.82,484.57,365.23z M526.72,375.7c-1.15,0.55-0.75,2.37,0.25,4.52c0.99,2.13,1.25,1.62,3.35,2.43
		c2.11,0.81,4.22,2.49,4.72,3.01c0.51,0.53,0.8,0.7,1.68-1.39c0.88-2.09-0.43-1.74-2.8-4.52
		C531.57,376.98,529.71,374.25,526.72,375.7z M541.08,393.88c-3.22-0.88-5.03,0.98-6.22,1.56c-1.18,0.58,0.62,1.91,1.43,4.39
		c0.8,2.5,0.12,3.31,4.85,3.66c4.72,0.34,6.16-0.52,6.53-3.53C548.04,396.95,544.07,394.69,541.08,393.88z M559.42,399.32
		c-2.93-2.15-4.35-3.89-7.34-2.66c-2.98,1.21-0.5,2.71-0.5,3.53c0,0.8,3.61-0.12,3.67,1.85c0.06,1.97,1.17,2.77-3.17,3.01
		c-4.35,0.23-5.54,0.06-7.22,1.33c-1.66,1.27,3.24-0.17,4.73,1.8c1.49,1.97,4.04,2.2,8.2,1.57c4.17-0.64,9.82-1.57,9.82-1.57
		s-3.04,2.89-4.29,4.92c-1.24,2.02-1.74,4.92,0.43,6.36c2.18,1.46,2.43-1.49,8.46-1.62c6.03-0.11,7.83-3.24,7.83-3.24
		s-1.37-1.34-1.18-4.35c0.19-3.01-0.07-3.71-0.07-3.71s2.44,1.74,2.98,2.44c0,0-0.43-1.8-1.3-5.04c-0.87-3.23-0.18-3.48-1.12-7.87
		c-0.94-4.4-0.75-5.33-5.28-5.21c-4.54,0.12-7.65,1.69-11.39,1.69c-3.71,0-5.35,0.69-2.6,2.08c2.74,1.39,3.12,3.07,4.41,4.62
		c1.31,1.57,1.06,5.33,1.12,5.16C565.69,404.24,559.42,399.32,559.42,399.32z M536.73,415.82c-0.07,0.02-0.13,0.06-0.2,0.08
		c-1.89,0.93-2.54,3.03-2.66,4.49c-0.12,1.51,2.49,0.63,6.66-0.81C544.68,418.13,542.64,413.92,536.73,415.82z M595.41,407.95
		c-3.46,1.88-6.21,4.4-8.21,6.66c-1.98,2.26-0.25,2.54,4.91,5.15c5.17,2.61,10.69,3.12,13.11,0.4
		C607.65,417.44,604.11,403.19,595.41,407.95z M619.4,387.75c-6.62,0.66-4.57,1.64-12.22-0.87c-7.64-2.53-17.25-2.79-19.86-2.79
		c-2.62,0-1.39,1.22,1.31,5.66c2.7,4.42,3.44,5.98,9.04,4.59c5.6-1.39,10.16-2.34,14.27,3.56c4.09,5.91,6.25,7.74,2.89,9.9
		c-3.36,2.17-1.78,5.64,0.19,10.17c1.96,4.51,6.43,4.33,12.68,4.33c6.25,0,45.78-0.6,51.94-1.73c6.15-1.13,11.65-6.34,14.92-8.68
		c3.26-2.34,5.03-5.99,0.56-8.69c-4.48-2.69-10.82-5.21-15.86-5.21c-5.04,0-9.32,2.61-16.97,3.39c-7.64,0.79-5.96,4.44-12.86,4.61
		c-6.91,0.16-3.55,3.21-12.04-0.26c-8.48-3.48-14.73-7.82-10.71-8.43c4-0.61,7.26-1.12,5.03-3.03
		C629.47,392.34,625.56,387.13,619.4,387.75z M540.34,355.45c4.1,1.39,5.13,2.43,0.56,3.64c-4.57,1.21-8.12,4.43-3.54,3.82
		c4.57-0.61,8.48,0.43,14.36,1.39c5.89,0.95,5.4,0.34,8.02,3.65c2.62,3.3,5.41,3.3,9.43,2.34c4-0.96,4.56-1.22,1.96-4.09
		c-2.62-2.86-5.32-8.15-8.86-10.24c-3.55-2.08-6.53-5.04-10.08-4.68c-3.54,0.35-4.38,0.43-7.46-3.74c-3.07-4.17-5.49-2.18-9.98-1.05
		c-4.47,1.13-5.9,4.33-7.64,5.74C523.55,355.1,536.24,354.05,540.34,355.45z M594.05,312.9c-4.85,6.07-8.77,11.2-3.28,11.81
		c5.51,0.61,7.93-0.43,8.3,1.31c0.38,1.72-0.93,2.94-9.14,2.94c-8.2,0-5.68,1.83-1.12,7.21c4.58,5.39,5.04,3.56,12.03,3.39
		c6.99-0.17,9.32-2.7,15.11-1.21c5.78,1.48,7.55,2.95,2.33,4.51c-5.23,1.56-17.54,4.51-14.73,7.12c2.8,2.61,11.47,8.85,15.39,9.47
		c3.91,0.61,4.75-2.61,13.24-1.66c8.49,0.96,6.44,1.83,7.36-0.52c0.94-2.34,5.6-8.33,6.53-10.51c0.93-2.16,3.27-3.56,7.93-4.6
		c4.67-1.04,6.16-2.52,1.77-4.08c-4.37-1.57-9.32-2.26-8.85-3.47c0.46-1.22,3.17-4.78,1.3-6.61c-1.86-1.82-4.84-1.74-7.27-2.69
		c-2.41-0.95-5.12-5.38-8.21-7.29c-3.07-1.91-5.77-2.09-9.51-4.95c-3.72-2.86-9.69-9.85-17.15-9.46
		C601.05,303.86,598.89,306.81,594.05,312.9z M584.53,363.69c-1.86,0.95-6.52,1.12-3.07,3.98c3.44,2.87,2.52,2.96,6.89,1.31
		c4.39-1.66,10.73-5.74,11.3-6.95c0.55-1.21-4.39-3.56-7.75-4.6c-3.35-1.04-5.68-3.73-12.68-5.65
		C569.05,349.02,586.39,362.73,584.53,363.69z M812.67,273.36c-7.71-2.09-35.3-7.42-44.26-5.34c-8.95,2.09-8.46-4.62-20.89-3
		c-12.43,1.61-31.57,0.69-37.54,1.61c-5.96,0.93,2.98,3.48,6.21,5.56c3.23,2.08-15.41-2.31-29.6,1.62
		c-14.17,3.93-23.37,6.02-8.19,11.81c15.16,5.79,17.15,7.41,17.15,7.41s-19.4-3.48-27.61-6.71c-8.21-3.24-3.72-3.01-19.15,1.39
		c-15.41,4.39-30.33,6.72-29.58,11.35c0.74,4.63,12.44,10.89,20.14,12.5c7.71,1.62,23.63-2.31,24.87-2.78
		c1.24-0.46-6.22,6.26-6.22,6.26s7.95-1.62,16.9-3.94c8.95-2.31,15.91-4.85,24.37-7.87c8.45-3.01,9.94-3.93,9.94-3.93
		s-14.67,11.35-24.87,15.28c-10.19,3.93-23.38,6.49-29.59,6.72c-6.21,0.23-5.23,4.16,0.99,7.41c6.21,3.24,10.94,10.18,14.17,12.49
		c3.22,2.33,3.73,6.03,3.73,6.03s-9.7-7.64-20.39,0c-10.7,7.63-9.21,11.58-6.47,12.5c2.73,0.92,12.18,1.85,13.92,5.09
		c1.75,3.24,14.18-3.01,14.18-3.01s-6.21,7.87-12.18,7.87c-5.96,0-5.72-5.09-14.42-4.17c-8.71,0.93-8.21,3.02-4.47,6.02
		c3.72,3.02,6.71,3.94,0.25,6.95c-6.47,3.01-9.45,3.93-9.7,7.64c-0.25,3.71,8.45,3.71,13.92,3.71c5.47,0,10.69-0.48,20.64-0.7
		c9.94-0.24,8.7-3.48,12.43-3.48c3.74,0,7.46,1.16,5.97,4.86c-1.48,3.71,1.48,1.39,12.44-2.54c10.93-3.93,5.95-9.97,5.22-12.04
		c-0.75-2.09-4.73-2.78-7.21-3.94c-2.49-1.16,7.46-11.35,5.96-14.81c-1.48-3.48,12.19-0.7,18.4-8.81c6.22-8.1,3.98-14.13-0.49-15.51
		c-4.47-1.39,8.21-0.46,12.18-2.79c3.98-2.3,12.69-5.08,16.17-9.49c3.48-4.4,4.72-6.03-3.72-5.09c-8.46,0.93,12.17-3.71,22.12-10.2
		c9.94-6.48,21.39-14.12,23.87-15.97c2.49-1.85,4.74-0.93-6.96-0.23c-11.68,0.69-25.61-0.93-17.9-1.85
		c7.71-0.93,30.59-3.71,36.56-8.1C809.94,274.74,812.67,273.36,812.67,273.36z M673.43,434.05c-12.45-1.16-30.58-4.16-34.32,6.48
		c-3.74,10.66-9.45,34.29-9.95,38.68c-0.49,4.4,14.92,10.88,25.61,11.34c10.69,0.47,28.1,1.16,24.62-1.39
		c-3.49-2.54-0.5-3.94,9.45-3.48c9.94,0.47,10.94-2.08,10.94-4.16c0-2.08,1.74,2.54,8.7,6.25c6.95,3.71,12.94,14.13,19.15,20.15
		c6.21,6.02,20.13,14.12,17.41,18.76c-2.75,4.62,2.98,20.84-18.41,24.55c-21.37,3.7-22.62,1.15-22.37,6.02
		c0.25,4.85,1.23,6.95,9.69,6.95c8.45,0,20.14-6.95,24.12-1.85c3.98,5.09,9.45,6.94,12.94,8.11c3.48,1.16-4.23,3.23-6.22,3.94
		c-1.98,0.69,4.23,1.39,16.41,7.17c12.18,5.79,26.85,6.49,19.64,2.32c-7.21-4.17-10.68-11.8-13.92-14.36
		c-3.23-2.54-0.25-0.46,5.48,0.93c5.71,1.39,10.94,6.02,13.42,8.1c2.48,2.08,3.73-0.69,5.47-8.81c1.74-8.1-0.74-8.1-10.45-14.58
		c-9.69-6.48-12.68-11.58-13.68-16.22c-0.99-4.63,4.98-5.56,7.47-8.81c2.48-3.23,9.45,5.8,14.17,11.12
		c4.72,5.33,8.69,14.59,12.43,7.88c3.72-6.71,7.2-21.77,7.2-25.24c0-3.47-3.72,0.23-19.63-7.64c-15.92-7.87-24.13-10.88-25.61-10.88
		c-1.5,0,4.22-3.01,11.19-6.48c6.94-3.48,9.94-3-4.99-17.14c-14.92-14.13-19.14-17.14-28.84-18.06
		c-9.7-0.93-12.43-11.12-19.39-14.59c-6.96-3.48-23.13,4.16-27.86,5.33c-4.71,1.15-3.23,3-9.2-5.56
		C678.15,440.3,673.43,434.05,673.43,434.05z M684.61,434.05c-6.18,0.74,3.73,12.04,11.68,12.51c7.97,0.46,14.67-3.48,16.41-3.94
		C714.46,442.15,694.31,432.89,684.61,434.05z M656.71,548.9c-1.04,2.53-3.55,9.56-3.92,14.25c-0.38,4.69-1.12,5.38-2.05,8.33
		c-0.93,2.95,2.98-0.52,5.6,3.82c2.6,4.35,1.48,5.56,6.15,0.52c4.66-5.03,9.89-6.77,16.41-4.69c6.53,2.08,11.57,2.95,9.33-1.03
		c-2.24-4-5.22-3.66-9.7-9.03c-4.48-5.39-7.83-6.77-13.42-8.86C659.5,550.12,658.94,543.52,656.71,548.9z M703.63,954.65
		c-1.93-4.02-4.82-10.53-16.91-12.77c-12.09-2.25-16.18,2.25-20.64,3.76c-4.48,1.51,4.17,2.25,9.93,0
		c5.75-2.25,10.13-0.48,10.92,0.55c0.76,1.04-1.94,1.66-2.92,0.57c-0.99-1.1-1.17,2.7,5.33,5.04c6.5,2.35,8.08,3.47,8.74,6.26
		c0.66,2.79,0.6,4.28,2.07,6.61c1.48,2.33,2.04,3.31-0.69,4.33c-2.75,1.03-1.77,0.89,0.24,2.13c2.01,1.24,6.05,3.31,11.76,3.79
		c5.68,0.48,7.56,1.54,3.61-3.66C711.1,966.03,704.23,955.91,703.63,954.65z M721.69,980.08c3.15,3.23,2.24,6.74,2.02,8.59
		c-0.22,1.85-3.62,0.42-9.86-1.23c-6.24-1.66-5.29-0.84,0.14,2.08c5.42,2.93,8.94,2.21,8.7,6.12c-0.24,3.9,4.98,0.36,7.29-1.9
		c2.3-2.26,2.15-0.25,11.79,1.2c9.66,1.46,11.63,3.2,10.09-1.03c-1.55-4.23,4.42-3.89-4.15-7.92
		C739.13,981.94,718.11,976.4,721.69,980.08z M694.23,982.49c-3.63-4.02-8.17-4.6-8.21-1.18c-0.05,3.42,1.23,3.21,4.57,4.15
		C693.98,986.39,696.55,985.05,694.23,982.49z M764.27,999.91c-3.94-1.35-4.75,1.62-2.13,4.09c2.63,2.46,6.66,1.62,10.63,1.43
		C776.73,1005.25,771.16,1002.28,764.27,999.91z M718.9,515.3c-5.23,2.21-8.3,3.73-3.73,9.72c4.58,5.99,7.28,9.72,9.04,5.39
		C725.98,526.07,727.75,511.56,718.9,515.3z M677.04,579.59c-7.88,1.27-10.45,1.5-9.21,5.91c1.25,4.39,3.36,3.7,8.7,1.03
		C681.88,583.87,685.61,578.2,677.04,579.59z M693.44,586.3c-1.34,0.41-1.74,3.48,0,6.25c1.74,2.79,5.09-0.92,6.59-4.28
		C701.53,584.91,698.42,584.79,693.44,586.3z M607.41,372.58c-7.45,0.25-18.65,2.89-12.44,3c6.21,0.12,11.32,1.39,21.4,0.82
		c10.07-0.58,11.05-1.28,11.31-6.14C627.92,365.4,621.09,372.11,607.41,372.58z M560.79,331.71c-7.61,2.36-5.72,3.93,3.22,7.87
		c8.95,3.94,9.21,2.08,8.21-5.33C571.23,326.84,565.27,330.32,560.79,331.71z M1092.24,525.5c-9.42,2.63-12.58,1.06-14.36,5.84
		c-1.8,4.76-5.48,2.21-7.61,2.8c-2.12,0.59-5.14,13.92-6.63,11.94c-1.51-1.98-2.03-3.07-4.21-7.64c-2.16-4.58,0.71-3.77-3.43-8.6
		c-4.14-4.83-12.33-4.28-12.91-2.3c-0.57,1.98,5.66,3.64,3.54,5.87c-2.13,2.25-7.19,4.98-9.12,6.6c-1.92,1.62,3.69,0.91,7.21,0.08
		c3.52-0.83,5.94,2.65,7.38,5.11c1.43,2.47-1.61,4.86-3.14,6.06c-1.52,1.2,5.12,0.91,7.78,1.4c2.66,0.49,4.05,2.73,2.24,5.74
		c-1.82,3.01,7.9,0.43,13.29,0.11c5.37-0.31,6.79,3.69,14.92,1.14c8.14-2.55,12.01-2.37,19.42-7.85c7.41-5.48,6.84-4.21,11.76-7.75
		c4.91-3.52,3.74-4.62,3.94-8.54c0.2-3.92,3.25,1.1,2.09-4.82c-1.14-5.93-7.22-4.31-11.46-4.77c-4.26-0.47-4.09-3.79-6.22-4.84
		C1104.61,520.02,1101.79,522.84,1092.24,525.5z M1721.69,1035.61c-0.4,1.41-1,3.01-1,6.13c0,3.13-0.37,6.49-0.12,9.61
		c0.25,3.13,0.43,5.33,2.17,6.03c1.75,0.7,2.93,1.39,5.79,0.06c2.86-1.33,5.53-3.71,4.11-7.3c-1.43-3.58-4.11-8.51-5.67-11.17
		C1725.42,1036.32,1722.43,1032.96,1721.69,1035.61z M1719.41,1031.32c0.3,1.33,0.73,1.05,1.36,1.97c0.61,0.93,1.3,0.11,0.43-1.1
		c-0.87-1.21-0.76-1.36-0.76-1.36s-1.11-0.38-1.11,0.72 M1987.86,1216.13c-0.04,0.14-0.21,0.21-0.3,0.33
		c-5.11,5.17-9.75,3.72-18.52,6.44c-8.95,2.77-24.43,11.81-25.56,15.81c-1.11,3.98,0,4.51-1.11,3.98c-1.12-0.52-2.99-2.95-2.99-2.95
		s-2.42,4.87-1.86,9.21c0.56,4.34,2.61,6.94,2.43,12.5c-0.19,5.56-2.24,8.85-2.05,12.68c0.18,3.83,6.52,11.12,8.21,15.64
		c1.67,4.51,2.8,3.3,3.72,11.46c0.93,8.15,5.22,12.67,0.93,17.01c-4.28,4.34-7.45,3.47-2.23,7.99c5.22,4.52,9.52,7.47,17.9,4.52
		c8.4-2.95,6.17-5.56,12.69-6.95c6.52-1.38,7.83-2.77,13.42-3.12c5.59-0.34,9.51,0.17,11.58-3.81c2.04-4,0.55-3.82,6.14-6.61
		c5.6-2.77,5.03-3.48,8.77-4.17c3.73-0.69,6.15,1.92,11.18-2.08c5.03-3.99,1.3-4.35,12.49-4.35s15.86,1.57,19.96,2.95
		c4.11,1.39,10.82,5.03,12.49,7.64c1.69,2.61,3.92,5.74,4.66,5.74c0.75,0,1.69,0.16,4.3-2.43c2.61-2.61,10.07-7.81,10.07-7.81
		s-0.38,5.56-2.05,7.64c-1.69,2.08-1.69,5.03-1.69,6.08c0,1.03,4.3-3.31,4.86-3.48c0.56-0.18,1.12,7.64,1.67,8.33
		c0.57,0.7,2.25,0.34,3.92,2.61c1.68,2.26,3.92,4,5.6,8.34c1.67,4.34,8.76,8.68,13.24,9.37c4.48,0.7,8.39,0.35,11.75-0.17
		c3.35-0.52,3.54-4.52,7.08-2.94c3.54,1.56-0.18,4.85,8.21,4.16c8.4-0.7,10.63-3.48,13.99-5.74c3.35-2.25,3.73,3.13,8.02-2.77
		c4.29-5.9,5.03-4.52,5.78-11.64c0.75-7.12,0.56-8.51,4.66-15.28c4.11-6.77,5.05-3.48,7.85-13.36c2.79-9.9,6.34-19.28,5.97-27.44
		c-0.38-8.17,0.17-2.78-1.69-11.99c-1.86-9.2-0.56-8.15-6.53-11.97c-5.98-3.82-7.45-2.79-8.95-8.17c-1.48-5.39,0.38-6.95-2.43-6.95
		c-2.79,0-5.22,1.21-6.9-2.43c-1.68-3.65-1.48-5.03-4.66-8.51c-3.17-3.48-6.15-2.78-11.94-5.38c-5.79-2.61-2.81-3.3-2.81-7.82
		c0-4.51,0.33-9.31-4.28-11.4c-4.6-2.08-1.86,1.16-1.86-6.26c0-7.4,0-6.36-3.73-7.63c-3.72-1.28-4.98-1.16-7.34-5.68
		c-2.36-4.51-5.47-11.92-6.58-14.92c-1.12-3.02-2.48,0.34-3.98,2.54c-1.49,2.2-3.61,7.06-3.61,11.58c0,4.51,1.99,7.07,1.99,13.08
		c0,6.02-4.22,12.04-6.84,15.51c-2.61,3.48-4.72,0.34-6.97-0.58c-2.23-0.93-2.73-4.29-7.45-6.6c-4.73-2.31-13.42-4.39-17.41-7.99
		c-3.98-3.59-1.25-3.71,0-7.41c1.25-3.71,2.98-6.71,5.97-9.15c2.98-2.43,2.12-3.36-1.61-5.44c-3.73-2.08-8.95-2.2-15.3-2.2
		c-6.34,0-10.07-0.46-9.7,3.13c0.39,3.59,4.1,4.97-1.23,3.93c-5.35-1.05-9.95-1.51-12.31,1.03c-2.36,2.56-2.87,4.07-4.23,9.5
		c-1.37,5.44,0.38,5.78-1.86,5.78c-2.25,0-11.07-4.28-14.05-5.54c-2.98-1.28-4.59-1.16-8.08,2.08
		c-3.48,3.23-15.54,13.77-20.02,16.31C1992.15,1202.46,1992.4,1201.88,1987.86,1216.13z M1821.96,1059.6
		c-2.64-0.36-4.11-1.05-0.88,3.12c3.24,4.17,4.11,4.99,7.21,7.88c3.11,2.89,4.23-2.09,6.59,3.47c2.36,5.56,1.49,5.67,3.85,7.76
		c2.36,2.08,4.35,2.67,4.97,4.75c0.62,2.08,1.37,5.32,4.11,7.64c2.74,2.31,2.74,1.97,4.35,6.48c1.62,4.52,4.11,7.76,5.35,11.58
		c1.24,3.82,8.33,7.41,11.93,12.04c3.61,4.63,9.71,11.35,10.7,9.49c0.99-1.85,3.6,0,5.47-0.69c1.86-0.7,2.48-3.36,3.73-9.85
		c1.25-6.48-1.12-9.49-2.87-11c-1.73-1.5-4.97-1.85-5.83-3.24c-0.87-1.39-2.36-6.13-4.48-7.64c-2.12-1.5-2.62,0.11-2.62-3.59
		c0-3.7,2.49-3.35-0.62-5.44c-3.11-2.08-3.48-3.59-4.49-4.63c-0.98-1.04-7.7-2.66-9.44-4.52c-1.73-1.85-9.07-5.21-12.55-8.69
		c-3.48-3.46-7.34-6.25-8.45-8.79C1836.87,1063.19,1833.39,1061.1,1821.96,1059.6z M1894.31,1134.28c-2.98,0-4.47-1.74-6.46,1.85
		c-1.98,3.59-1.74,3.59,1.37,3.59c3.11,0,2.48,1.62,2.35,2.08c-0.11,0.46-1.48-0.35,4.85,2.2c6.34,2.54,10.82,1.51,12.56,0.57
		c1.74-0.93,2.36,2.32,11.07,3.71c8.69,1.39,13.3-0.8,18.89,0.58c5.6,1.39,4.24-0.7,0.25-3.7c-3.98-3.02-3.61-1.39-7.59-4.29
		c-3.96-2.89-9.57-3.01-12.17-3.48c-2.61-0.47,2.23,2.78-5.71,1.73c-7.97-1.03-5.1,0.7-9.21-1.96c-4.11-2.66-4.11-3.12-6.85-3.59
		C1894.93,1133.12,1894.31,1134.28,1894.31,1134.28z M1957.47,1147.01c-2.24,0.7-6.84,1.98-4.72,2.89c2.12,0.93,0.48,1.51,7.08,0.93
		c6.58-0.58,12.31-1.39,13.18-2.78c0.87-1.39-1.11-0.46-3.86-1.28c-2.73-0.8-2.48,0.58-6.21,1.05
		C1959.22,1148.28,1957.47,1147.01,1957.47,1147.01z M1980.6,1146.54c-4.41,0.54-3.86,1.51-0.38,2.56c3.48,1.03,6.71,1.49,9.32,0.8
		c2.61-0.69,2.98-1.39,7.84-2.2c4.85-0.81,6.46-0.7,10.31-1.16c3.87-0.46,3.87-0.46,3.87-0.46s-0.38-0.8-2.99-0.69
		c-2.61,0.11-4.46,0.23-7.08,0.23c-2.61,0-7.08,2.31-8.95,2.2c-1.86-0.11-5.46-1.27-6.34-0.7
		C1985.31,1147.7,1985.33,1145.97,1980.6,1146.54z M2005.47,1152.21c-0.07,0.03-0.11,0.08-0.16,0.11c-3.07,2.11-3.21,2.69-2.93,4.36
		c0.27,1.69-0.34,2.43-0.34,2.43s4.53-0.21,7.98-3.69c3.45-3.48,3.59-3.43,7.12-4.69c3.55-1.26,7.56-5.12,7.56-5.12
		s-2.8,0.61-5.87,0.34c-3.08-0.26-6.11,1.61-7.09,2.43C2010.76,1149.22,2012.7,1149.44,2005.47,1152.21z M1979.48,1154.04
		c-3.24-2.32-6.38-1.99-6.62-0.57c-0.23,1.43-2.8,1.34,1.76,3.04c4.57,1.69,8.91,3.91,8.58,1.6
		C1982.88,1155.82,1980.88,1155.03,1979.48,1154.04z M1949.76,1057.51c-1.87,2.66,1.74,1.97-1,4.29c-2.73,2.31-4.84,1.27-7.57,4.74
		c-2.73,3.48-6.85,5.9-8.58,7.18c-1.74,1.28-7.35,2.77-9.83,6.14c-2.48,3.35,0.88,5.21,0.88,5.21s-1.5,0.69-5.48-0.81
		c-3.98-1.5-4.22-3.35-4.22-3.35s-2.86-0.11-4.47,4.17c-1.62,4.28-2.5,4.74,0.35,7.3c2.87,2.54-1.98,2.66-1.36,4.39
		c0.61,1.74,0.63,4.99,2.36,5.33c1.74,0.34,2.12-1.62,4.24,1.04c2.11,2.66,0.37,10.18,3.1,10.54c2.74,0.34,4.72-0.81,7.08,0.23
		c2.38,1.05,4.1,1.97,7.22,0.93c3.11-1.04,6.46,0,8.08,0.93c1.61,0.93,7.45,2.89,10.31,2.66c2.87-0.23,3.35,0.47,3.85-3.59
		c0.5-4.05,0.13-7.87,3.61-10.99c3.48-3.13,3.61-3.13,3.85-6.03c0.25-2.89,0.25-5.9,2.37-8.91c2.1-3.02,3.35,1.74,4.48-0.58
		c1.11-2.32,2.24-2.3,1.61-3.47c-0.62-1.17-3.85-1.17-5.09-3.36c-1.25-2.2,0.38-3.36-1.12-7.87c-1.5-4.51-2.35-2.78-0.25-5.33
		c2.12-2.54,3.85-3.01,4.1-4.98c0.25-1.98,1.11-2.09,3.74-3.94c2.6-1.85-0.42-0.98-2.9-2.84c-2.48-1.85-7.14-8.8-10.04-8.74
		C1957.53,1047.81,1951.63,1054.85,1949.76,1057.51z M2317.13,1303.31c-1.2-0.88-2.22-0.23,0.52,3.01c2.73,3.25,2.98,2.31,4.71,2.43
		c1.74,0.11,3.24,6.49,4.22,8.12c1,1.62,2.86,3.58,2.86,3.58s1.01,6.94,0.13,10.08c-0.87,3.12-2.74,4.51-3.35,7.41
		c-0.62,2.89,2.85,2.08,5.1,3.01c2.23,0.93,1.86,0.93,0.99,3.47c-0.87,2.55-3.48,3.71-3.48,4.17c0,0.47,5.1,3.35,7.72,0.23
		c2.6-3.12,6.7-7.76,7.84-11.11c1.11-3.36-2-1.86,1.61-4.29c3.6-2.44,3.11-1.28,4.98-4.29c1.85-3.01,3.85-6.13,1.74-7.76
		c-2.12-1.62-4.47,1.97-6.35,2.66c-1.85,0.7-3.35,0.81-5.96-0.47c-2.61-1.27-3.11-1.27-4.1-3.59c-1-2.31-2.24-3.59-2.24-3.59
		s-0.75,3.94-2.61,2.67c-1.87-1.28-1.38-2.67-2.74-4.87c-1.37-2.2-1.37-2.89-2.25-4.51c-0.86-1.62-0.12-4.76-4.47-5.21
		C2317.65,1304,2318.26,1304.12,2317.13,1303.31z M2317.89,1345.34c0,0-3.48,3-6.58,7.29c-3.11,4.29-3.61,5.9-4.6,8.22
		c-0.99,2.31-4.6,5.09-10.57,8.22c-5.97,3.13-8.21,4.4-10.2,7.3c-1.98,2.9-9.08,11.92-9.94,12.97c-0.88,1.03,3.35,2.08,7.71,2.08
		c4.35,0,11.18,3.94,14.91-0.11c3.73-4.05,7.46-13.67,9.82-17.14c2.36-3.48,4.6-4.75,8.33-8.11c3.72-3.35,9.94-9.61,9.94-12.04
		c0-2.43-1.62-6.36-1.62-6.36s-1.37,2.66-4.61,2.31C2317.27,1349.62,2317.89,1345.34,2317.89,1345.34z M2288.57,1389.81
		c-4.37-2.31-5.22,1.99-5.93,6.41c-0.71,4.42,1.89,0.66,5.68-1.33C2292.14,1392.91,2290.23,1390.69,2288.57,1389.81z
		 M2140.73,1359.46c-4.92-1.64-4.1,3.02-3.35,6.49c0.74,3.47,1.74,6.26,3.61,9.14c1.86,2.9,8.82,3.93,11.57,2.67
		c2.73-1.28,4.71-5.56,7.45-9.62c2.74-4.05,3.98-8.68,3.48-11.11c-0.5-2.44-3.98,2.2-6.22,3.24c-2.23,1.04-5.22,3.71-9.45,2.55
		C2143.6,1361.65,2142.47,1360.04,2140.73,1359.46z M2078.82,1110.89c-3.98,0.93-5.97-2.55-9.21-9.26
		c-3.24-6.71-5.71-7.63-13.92-4.63c-8.21,3.02-6.96,2.32-1.49,4.4c5.48,2.09,6.22,2.78,6.96,2.78c0.75,0,8.71,1.16,6.96,2.31
		c-1.75,1.16-9.2,2.31-4.48,5.56s2.74,0.93,15.18,7.18c12.43,6.25,14.42,1.62,18.41,9.72c3.97,8.1,3.97,6.71,0.74,8.81
		c-3.24,2.08-7.46,4.16-5.71,4.4c1.73,0.23,4.98,0.93,13.42,1.39c8.46,0.46,0.5,5.32,9.94,5.32c9.45,0,11.94-3.01,15.67-7.41
		c3.73-4.4,4.48-2.08,12.43-0.23c7.96,1.85,10.7,8.8,20.64,11.58c9.94,2.78,14.17,6.49,7.95,0.7c-6.21-5.79-8.45-9.95-16.91-16.68
		c-8.45-6.71-8.94-7.41-11.43-12.5c-2.49-5.09-11.19-11.12-20.88-15.05c-9.71-3.94-15.25-4.48-26.61-7.64
		C2084.78,1098.38,2082.79,1109.96,2078.82,1110.89z M2013.4,1087.73c-3.72,2.6-4.18,1.01-6.97-0.71c-2.79-1.74-2.01,3.6-8.21,0.71
		c-6.2-2.89-8.51-4.33-15.18,0.58c-6.67,4.9-2.48,6.92-2.64,10.38c-0.16,3.46-5.58,13.27-7.59,16.87c-2,3.61-1.99,4.9-0.46,7.21
		c1.54,2.3,3.72,1.43,4.65,2.59c0.93,1.15,0,10.24-1.09,13.27c-1.08,3.03,2.64,3.61,6.51,2.74c3.88-0.87,0.47-1.15,0.47-4.32
		c0-3.17,1.85-4.62,1.85-10.53c0-5.9,0-8.64,0-8.64s1.09-0.58,2.48,1.44c1.39,2.02,3.41,7.65,5.11,10.53
		c1.7,2.88,3.4,5.04,6.04,3.02c2.63-2.02,5.1-4.32,5.1-4.32s-5.1-1.58-5.1-3.32c0-1.73,2.16-3.16-1.4-8.94
		c-3.56-5.77-5.41-6.06-0.92-6.35c4.48-0.29,4.34-4.76,6.96-6.06c2.63-1.3,6.35-0.86,6.35-0.86s-2.64-2.74-6.66-1.59
		c-4.03,1.15-7.59,1.73-11,3.61c-3.4,1.87-6.35,3.03-6.97-0.43c-0.62-3.46-1.07-4.32-0.62-9.09c0.47-4.76,5.88-1.15,9.91-2.3
		c4.03-1.16,4.03-0.87,12.86-0.29c8.82,0.57,9.44-1.44,12.08-5.04c2.62-3.61,4.17-7.8,4.17-7.8S2017.12,1085.13,2013.4,1087.73z
		 M2034.31,1075.12c0.79-1.44-6.47,4.97-7.83,6.25c-1.37,1.28,0,3.12,0.98,4.99c1,1.85,0.75,8.21,1.12,9.6
		c0.38,1.39,4.11,2.66,4.11,2.66s-0.12-4.28,1.24-6.25c1.37-1.97,0-4.4,0-7.99C2033.93,1080.79,2031.95,1079.39,2034.31,1075.12z
		 M2020.01,1113.12c-5.71-2.18-7.84-0.75-7.84,2.24c0,2.98-0.63,4.47,5.44,4.47C2023.7,1119.83,2030.57,1117.15,2020.01,1113.12z
		 M2031.37,1111.19c-1.4,0.44-2.88,4.92-2.07,7.59c0.79,2.69,1.75,0.9,4.96,0.3c3.2-0.6,2.71-3.12,6.71-3.43
		c4.01-0.3,12.32,2.83,12.32,2.83s1.76-2.08-4.62-6.1C2042.25,1108.35,2039.36,1108.66,2031.37,1111.19z M1917.63,963.91
		c0,0-5.71,0.16-6.59,0.16c-0.87,0-2.86,2.21-4.29,3.08c-1.43,0.86-1.43,2.07-0.43,4.33c0.98,2.26,2.66,2.38,5.46,3.13
		c2.8,0.75,1.8-1.21,3.86-1.97c2.04-0.75,2.61-2.61,3.05-4.28c0.43-1.69,1.8-2.44,2.3-3.02c0.49-0.57-1.62-2.54-1.62-2.72
		C1919.37,962.47,1917.63,963.91,1917.63,963.91z M1984.95,971.95c-2.25-1.66-3.49,4.17-4.11,7.17c-0.62,3.02-1.37,4.98-0.25,7.18
		c1.12,2.2,0.62,2.9,0.62,2.9l-3.24-2.44c0,0-0.87,2.79-0.87,5.21c0,2.44-1,3.48,2.74,5.21c3.72,1.74,4.98,0.8,5.46,3.48
		c0.5,2.66,0.5,3.81,2.99,4.28c2.48,0.46,5.35,1.5,6.34,3.13c0.99,1.61,0.49-4.3,2.24-3.94c1.74,0.35,3.74,2.55,4.98,4.52
		c1.25,1.97,3.1,2.08,3.1,2.08s-2.85-4.75-1.61-5.33c1.24-0.57,1.61-1.03-1.62-3.01c-3.23-1.96-5.84-1.5-8.32-1.85
		c-2.48-0.34-2.48,1.74-4.35-3.12c-1.87-4.86-0.37-7.87-0.37-8.92c0-1.03,1.36,1.62,2.86-1.74c1.48-3.35,1.86-6.02,1.61-9.26
		c-0.25-3.24,2.24-4.52,0.37-4.63C1991.65,972.76,1986.19,972.88,1984.95,971.95z M2014.53,1034.17c0.38,2.34-2.23-0.66-3.21,0.69
		c-0.98,1.35-1.49,1.08-3.07,1.74s-5.4,4.21-5.4,4.21s-0.05-2.3,0.04-2.82c0.09-0.52-1.16-3.21-2.33-1.39c-1.16,1.82-2.29,3-4.9,4.3
		c-2.62,1.31-4.24,3.21-4.56,5.56c-0.34,2.34,1.58,2.26,1.58,2.26s1.03-0.79,2.75-3.48c1.72-2.69,2.04-2.61,5.17-3
		c3.13-0.38,2.88-0.34,3.88,1.34c0.98,1.71,0.23,4.26,0.32,6.13c0.09,1.86-0.09,4.12,3.11,5.21c3.23,1.09,1.69,0.09,4.62-0.17
		c2.94-0.26,2.89-0.18,2.47-1.66c-0.42-1.48-1.3-2.77-1.5-4.51c-0.18-1.74,1.7-2.48,2.3-2.82c0.61-0.34,0.98,1.74,1.87,3.9
		c0.88,2.18,1.25,2.08,1.63,0.43c0.38-1.65,1.39-5.55,1.03-7.64c-0.38-2.08-0.56-3.69-0.56-5.43c0-1.73-1.45-3.82-2.29-4.43
		c-0.84-0.61-3.73-3.16-3.73-3.16S2014.17,1031.83,2014.53,1034.17z M2000.23,1020c0,0,0.07-1.48-2.63-4.12
		c-2.71-2.66-2.77-3.42-6.9-4.13c-4.11-0.7-8.23,0.36-6.49,4.78c1.74,4.42,2.25,5.07,5.73,5.6c3.47,0.52,5.59-1.36,5.59-1.36
		s0.26,0.7-3.03,2.77c-3.28,2.07-3.66,6.01-1.09,7.54c2.57,1.53,2.51,3.89,3.99,2.71c1.48-1.17,2.57-5.24,5.59-8.07
		c3.03-2.83,3.21-3.24,3.61-6.25c0.38-3,0.07-5.42,0.07-5.42L2000.23,1020z M2007.27,1011.51c-0.38,0.3-2.53-0.22-0.29,1.95
		c2.24,2.16,4.29,2.65,4.01,4.25c-0.28,1.62-0.09,1.92-1.34,1.74c-1.26-0.17-1.64-0.48-2.2-0.52c-0.56-0.04-0.64,1.04-0.27,2.04
		c0.36,1,0.27-0.13,1.34,1.56c1.07,1.7,0.8,2.26,1.12,4.21c0.33,1.95,1.16,1,1.16,1s-0.28-4.69-0.14-5.64
		c0.14-0.96-0.38-3.26,1.21-2.52c1.59,0.74,1.16,3.53,2.1,0.92c0.93-2.61,0.52-4.91,0.06-6.99c-0.47-2.09-2.11-2.17-4.02-2.17
		C2008.11,1011.33,2007.27,1011.51,2007.27,1011.51z M1975.11,1019.54c-0.93,0.23-1.5,1.13-2.06,4.3c-0.57,3.16-2.34,4.82-4.24,6.68
		c-1.92,1.87-7.1,6.86-7.37,7.86c-0.3,0.99-0.34,0.39,3.54-1.44c3.87-1.82,6.94-4.25,7.39-6.72c0.48-2.48-0.45-0.95,2.96-2.56
		c3.4-1.61,1.67-2.13,1.81-4.66C1977.28,1020.5,1976.81,1019.1,1975.11,1019.54z M2180.96,1114.35c-0.42,3.22,0.93,4.18-2.06,6.54
		c-2.99,2.38-6.34,2.38-9.52,2.9c-3.16,0.52-0.85-0.53-4.78-0.64c-3.92-0.11-4.92,0.17-3.11,2.14c1.8,1.98,1.36,3.88,7.14,3.65
		c5.79-0.23,10.57-3.35,14.31-4.51c3.73-1.17,3.42-4.17,3.73-5.56C2186.98,1117.49,2181.38,1110.89,2180.96,1114.35z
		 M2197.11,1121.31c1.6,2.27,0.99,1.92,3.04,4.92c2.06,3.01,5.3,3.53,7.71,4.35c2.42,0.8,0.01-0.87-1.8-3.3
		c-1.8-2.44-1.94-3.77-4.61-6.2C2198.79,1118.65,2194.31,1117.31,2197.11,1121.31z M1987.13,926.62
		c-7.97,5.07-11.56,4.69-8.39,11.12c3.16,6.43,5.16,9.15,5.59,10.36c0.43,1.21,2.05-0.81,4.21-5.9c2.19-5.1,2.44-11.76,3.3-13.77
		C1992.73,926.39,1989.86,924.89,1987.13,926.62z M2123.57,676.84c0.88,3.36,1.74,8.57-0.25,9.14c-1.99,0.58-3.36,4.29-3.85,8.12
		c-0.5,3.81-1.49,8.67,0.61,11.69c2.12,3,0.62,3.23,0.62,5.79c0,2.54,0.75,9.03-0.5,12.85c-1.24,3.82-1.98,4.75-1.48,8.8
		c0.49,4.05,0,4.86,0,10.66c0,5.79-0.37,10.41-0.12,12.72c0.25,2.33,1.48-1.15,2.35-1.96c0.87-0.81,4.23-1.28,6.09,0.7
		c1.88,1.97,1.88,1.97,1.88,1.97s2.98,1.27-1.12-7.53c-4.11-8.8-4.85-6.94-3.73-14.94c1.12-7.98,1.74-8.1,5.96-8.92
		c4.23-0.8,6.46,4.99,6.97,5.56c0.5,0.59-0.38-1.97-1.87-6.48c-1.48-4.52-2.86-6.02-3.35-11.69c-0.5-5.67-2.25-10.43-4.48-12.04
		c-2.24-1.62-1.11-4.29-0.12-6.48c0.99-2.2,1.37-5.56,0.88-9.38c-0.51-3.82-1.63-9.15-2.24-11.23c-0.63-2.08-3.12,1.27-3.12,1.27
		L2123.57,676.84z M2119.84,765.53c0.25,2.54,0.5,4.85-1.24,7.75c-1.75,2.89-0.5,3.59-1.49,7.64c-0.99,4.05-5.85,0-5.85,0.82
		c0,0.8-0.75,3.71-1.99,4.74c-1.24,1.04-5.48,1.28-4.23,5.33c1.25,4.05,3.49,8.33,3.49,8.33s2.48-2.31,3.22-2.54
		c0.75-0.23,2.74-0.8,2.74-0.8s-0.37-1.16-3.11-2.44c-2.74-1.27-2.49-3.94-2.11-4.75c0.38-0.82,3.85,0.23,6.09,0
		c2.24-0.23,4.11-1.39,6.85,0.8c2.73,2.2,6.71,3.02,6.71,3.02s0.49-3.25,1.73-5.56c1.25-2.31,4.85-1.28,8.46-2.31
		c3.61-1.05,6.34-1.62,5.1-3.13c-1.25-1.51-1.12-4.86-1.88-7.41c-0.74-2.55-3.11-0.11-4.97,0.81c-1.86,0.93-4.22,0.23-6.71-1.39
		c-2.48-1.62-6.96-7.76-8.57-10.19C2122.08,764.25,2119.59,762.98,2119.84,765.53z M2108.71,803.5c-1.18,0.58-2.7,3.65-2.42,7.03
		c0.28,3.39,3.16-0.26-0.57,10.16c-3.72,10.42-5.6,12.77-9.23,15.46c-3.63,2.69-6.98,2.69-8.39,1.99c-1.4-0.69,0.38-3.04,1.4-3.74
		c1.02-0.69-3.18-0.95-4.94-0.69c-1.77,0.26-0.1,2.26-0.29,3.9c-0.18,1.66-3.63,6.08-3.25,8.08c0.37,1.99,0.37,2.61-1.87,3.3
		c-2.25,0.7-3.72-1.66-4.38-2c-0.66-0.34-4.01,0.62-8.4,1.21c-4.39,0.61-5.49,2.08-7.36,5.3c-1.87,3.21-6.26,3.73-9.42,4.94
		c-3.17,1.21-1.96,5.74-5.41,7.3c-3.45,1.56-3.45,4.43-3.73,6.77c-0.27,2.34,2.14,0.7,2.52,0.52c0.38-0.18,0.38-3.3,2.53-2.95
		c2.14,0.34,2.42,0.43,1.3,2.86c-1.12,2.43-1.76,3.65-2.88,5.73c-1.12,2.08,0.37,3.04,2.04,5.13c1.68,2.07,3.27-0.61,6.8-4.34
		c3.55-3.74,3.83-4.61,3.55-8.86c-0.29-4.25-1.69-4.35-4.29-5.55c-2.61-1.22-3.18,0-0.29-3.31c2.89-3.3,4.2-0.08,6.16-1.56
		c1.96-1.48,6.72-1.39,11.28-2.52c4.57-1.13,8.96-2.6,9.14-1.13c0.18,1.48,1.59,6.43,1.76,7.47c0.19,1.05,3.19-1.48,6.25-2.61
		c3.08-1.13,0.2-1.64-0.09-3.64c-0.28-2,1.4-3.13,1.4-3.13s1.59,3.3,6.53,0.96c4.94-2.34,5.32-3.3,6.62-2.96
		c1.3,0.35,2.15,1.66,4.19,0.35c2.06-1.3,2.44-0.09,2.06,0.96c-0.37,1.03,5.97-2,7.36-2.95c1.4-0.96,0.66-0.09,0.09-3.74
		c-0.55-3.64-2.33-3.9-1.3-8.59c1.02-4.69,0.75-5.13,1.02-8.08c0.27-2.95,1.39-3.38,2.14-3.56c0.75-0.16,0.75-4.08,2.33-6.16
		c1.59-2.09,1.21-3.04,1.21-7.82c0-4.77-2.61-3.91-2.79-7.29c-0.19-3.39,0.64-6.69,0.64-6.69s-5.31,2-5.86,3.21
		c-0.57,1.21-0.57,1.21-0.57,1.21S2110.49,802.63,2108.71,803.5z M2073.91,855.68c-5.5,0.92-9.4,1.51-12.66,2.55
		c-3.27,1.05-3.97,2.48-3.46,5.75c0.51,3.27,1.8,6.53,2.24,8.23c0.45,1.7,2.24,0,5.31-1.63c3.07-1.64,2.88-6.4,5.82-6.4
		c2.94,0,1.85,3.4,5.81-1.37c3.97-4.77,0.96-5.16,1.08-7.57C2078.19,852.81,2073.91,855.68,2073.91,855.68z M2422.33,598.52
		c-5.89-1.15-7.6-2.43-8.14-0.3c-0.57,2.15-1.19,2.85,2.54,4.17c3.74,1.34,5.59-0.98,9.08,1.62c3.48,2.6,4.47,2.48,7.14,2.14
		s3.73-1.68,3.73-1.68S2426.81,599.39,2422.33,598.52z M2354.99,505.75c-2.16,0.61-3.93-1.48-3.36,3.82
		c0.55,5.29,1.76,5.9,8.57,4.94c6.81-0.95,1.68-0.25,11.01-0.95c9.32-0.69,11.27-2,11.27-2s-1.3-2.61-4.47-5.03
		c-3.17-2.43-7.37,1.66-14.55,0.43C2356.28,505.75,2354.99,505.75,2354.99,505.75z M2144.9,427.51c0.09,2.03,9.32,7.72,12.68,9.38
		c3.36,1.66,5.96,0.95,13.06,0.17c7.09-0.78,7.65-3.81,8.48-5.55c0.84-1.74-3.35-1.13-8.1-2.08c-4.77-0.97-8.67,0.86-10.35,0
		c-1.68-0.87,2.52-1.74-1.68-3.3c-4.21-1.57-5.22,0.52-6.16-0.17c-0.93-0.71-1.11-2.18-3.17-2.34
		C2147.6,423.43,2144.8,425.61,2144.9,427.51z M2108.34,439.41c-3.21,1.29-2.98,2.43,0.65,5.47c3.64,3.04,2.43,2.34,0.84,4.52
		c-1.57,2.17,0-0.09,5.22,2.25c5.22,2.34,7.37,6.61,10.63,7.56c3.26,0.95,5.5-0.26,5.5-0.26s-1.12-3.48-4.2-7.64
		c-3.07-4.16-9.71-5.38-10.92-9.03C2114.87,438.63,2112.91,437.58,2108.34,439.41z M2141.63,422.39c0,0-4.75-2.87-11.94-7.39
		c-7.17-4.52-9.88-5.73-12.31-6.08c-2.44-0.34-2.04,2.53-2.98,4.77c-0.93,2.26-1.58,1.82-5.32,0c-3.72-1.82-7.46-4.6-11.27-5.48
		c-3.83-0.86-6.15,2.26-10.54,6.61c-4.38,4.34-1.86,5.56,3.45,11.98c5.31,6.44,7.65,6.78,11.93,4.25c4.3-2.51,3.07-4.16,6.16-2.95
		c3.08,1.21,13.71-1.21,14.08-1.21c0.37,0-0.66,5.9,4.01,4.35c4.65-1.56,8.94-2.34,11.09-4.69
		C2140.13,424.22,2141.63,422.39,2141.63,422.39z M1818.72,298.37c-1.36,1.15-9.32,0.46-13.43,6.94c-4.1,6.49-6.95,1.98-9.08,5.91
		c-2.1,3.93-3.85,8.68-3.85,8.68s3.74,4.4,7.71,4.06c3.98-0.35,10.94,1.39,14.79,6.71c3.85,5.32,6.71,5.32,16.04,6.82
		c9.33,1.51,5.09,2.79,9.95,2.33c4.85-0.48,11.55,0.57,10.07-1.86c-1.49-2.44-2.61-3.93-1.98-8.68c0.61-4.75,4.96-4.52-0.13-7.64
		c-5.1-3.13-8.71-0.57-8.45-1.16c0.25-0.58,4.6-2.32,2.86-2.43c-1.75-0.12-10.32-0.57-11.31-5.44c-1-4.86,2.35-5.22,4.09-5.57
		c1.75-0.34,1.25-0.92-3.73-4.51c-4.97-3.59-11.68-7.3-11.68-7.3C1817.48,296.86,1820.09,297.2,1818.72,298.37z M1865.47,333.44
		c-3.61,0.7-6.59,4.29-8.7,7.41c-2.12,3.13-6.34,7.87-8.95,9.95c-2.61,2.08-1.87,2.67,2.36,4.18c4.23,1.49,11.68-2.67,13.8-2.79
		c2.12-0.11,3.73,3.13,10.45,2.31c6.71-0.8,16.9-2.08,11.94-5.67c-4.98-3.58-3.23-1.85-8.71-6.25c-5.47-4.39-12.43-4.75-12.43-4.75
		s11.31-3.82,8.58-4.05C1871.06,333.56,1865.47,333.44,1865.47,333.44z M1578.03,276.36c-6.51,2.34-4.23,3.48-8.46,6.84
		c-4.21,3.36-1.38,4.28,7.72,2.08c9.08-2.2,9.57-3.13,15.41-5.79C1598.54,276.82,1587.73,272.89,1578.03,276.36z M1592.45,292.69
		c-6.11,2.71-4.48,5.56-2.85,7.87c1.62,2.31,6.08-1.39,7.32,1.16c1.25,2.54,1.62,1.49,7.35-2.33c5.71-3.82,3.61-2.66,1.38-6.71
		C1603.4,288.64,1602.9,288.06,1592.45,292.69z M1558.48,291.01c-3.91,1.86-3.91,1.65-0.2,3.39c3.74,1.74,12.78,3.12,17.44,0.08
		c4.66-3.03,4.3-2.43-1.58-3.3C1568.27,290.32,1562.85,288.92,1558.48,291.01z M1500.85,298.04c6.07-0.52,11.66-0.77,16.51-0.25
		c4.84,0.53,3.07,4.69-5.89,5.65c-8.95,0.95,0.84,2.34,7.18,2.08c6.34-0.26,2.24-5.48,7.56-7.3c5.3-1.82,8.67-0.7,15-2.95
		c6.34-2.26-3.63-4.43-11-4.26c-7.35,0.17-9.79,0.6-16.04,0.17c-6.25-0.43-11.29,2.38-17.72,3.48
		C1483.23,296.92,1494.79,298.56,1500.85,298.04z M1548.4,299.7c-5.33,0-18.18,2.95-7.36,3.99c10.82,1.04,9.99,1.74,14.45,0.09
		C1559.97,302.12,1554,299.7,1548.4,299.7z M1586.08,301.96c-7.59-2.51-7.76-1.48-13.63-1.22c-5.87,0.25-8.2,3.91-4.37,5.47
		c3.81,1.57,6.42,0.95,9.59,0.44c3.16-0.53,2.98-1.48,0.93-2.26C1576.56,303.61,1590.55,303.43,1586.08,301.96z M1617.97,292.58
		c-5.82,0.72-6.16,1.74-6.71,3.64c-0.57,1.91,0.84,1.48,6.99,0.7c6.16-0.78,9.04-1.65,13.05-3.82c4.01-2.17-0.84-7.47-0.84-8.43
		c0-0.95-5.68,2.88-7.27,4.25C1621.6,290.32,1624.86,291.71,1617.97,292.58z M1161.33,625.65c-2.93,8.1-7.77,11.84-2.05,9.59
		c5.71-2.25,11.44-9.22,11.15-3.24c-0.3,5.98-5.87,5.11-4.12,10.96c1.76,5.86,0.44,5.36,9.98,7.48c9.54,2.12,1.75,1.38,4.11,6.98
		c2.34,5.61,3.95,7.35,1.46,8.97c-2.49,1.62-9.82-5.11-10.26-2.25c-0.44,2.86,1.02,4.98,2.78,8.97c1.76,3.98-1.17,6.23-6.74,8.85
		c-5.58,2.62-0.74,4.24,3.52,3.99c4.26-0.25,14.95-2.25,13.19,1.49c-1.75,3.74-6.89-0.62-10.54,5.61
		c-3.68,6.23-17.18,11.58-10.13,11.22c7.04-0.38,6.02-2.25,27-5.23c20.97-2.99,6.44-0.25,20.23-4.49c13.79-4.23,9.39-5.36,1.76-4.11
		c-7.63,1.25,4.99-7.49,3.23-15.57c-1.76-8.11-6.74-0.38-9.98-5.49c-3.23-5.11-2.79-6.6,3.38-4.74c6.16,1.87,5.58-1.24-6.31-8.84
		c-11.88-7.6-4.54-6.11-9.97-12.46c-5.42-6.36-14.66-5.61-14.66-5.61s3.95-2.36,6.3-6.98c2.34-4.61,2.79-4.24,5.28-9.84
		c2.5-5.61-2.49-5.11-8.79-3.75c-6.31,1.37-8.37,2-7.04-0.49c1.32-2.49,2.2-3.48,5.13-6.61c2.93-3.12,3.51-4.73-1.91-3.48
		c-5.43,1.24-6.25,1.12-10.85,3.24C1159.42,613.07,1164.26,617.55,1161.33,625.65z M1146.51,644.72c-9.58,3.78-6.89,6.24-5.27,7.6
		c1.61,1.38,4.54-1.25-4.4,3.87c-8.95,5.11-9.09,10.71-4.4,11.83c4.71,1.12,4.11-2.74-0.87,6.61c-5,9.34-8.36,15.7,1.76,13.33
		c10.11-2.37,12.9-7.6,17.73-8.22c4.84-0.62,5.72-4.49,5.72-10.35c0-5.85-3.22-5.98,0.59-10.84c3.8-4.85,4.1-9.97-3.39-12.33
		C1146.51,643.84,1152.53,642.35,1146.51,644.72z M1266.96,775.48c-0.52,1.31,0.63,4.86-3.24,7.29c-3.85,2.44,1.87,4.64,3.11,6.95
		c1.25,2.31,2.86-7.87,2.48-12.74C1268.96,772.13,1268.58,771.31,1266.96,775.48z M1265.1,794.7c-6.32,2.99-6.71,5.21-7.47,9.96
		c-0.75,4.74,5.11,0.92,3.61,5.08c-1.49,4.17-0.11,6.37,6.47,2.44c6.58-3.94,2.86-7.53,3.85-12.51
		C1272.56,794.7,1273.43,790.76,1265.1,794.7z M1362.57,845.87c-5.56-0.54-8.02,2.95,1.49,4c9.51,1.04,13.8,1.21,17.35,0.34
		c3.53-0.87,0.55-0.17-4.12-3.3C1372.64,843.78,1369.65,846.56,1362.57,845.87z M1415.52,848.82c-7.66-1.65-5.58,7.65,2.25,6.26
		c7.83-1.39,4.84,0.52,8.39-5.21C1429.7,844.14,1423.55,850.56,1415.52,848.82z M1225.06,805.69c-6.22,0.8-6.71,2.9-1.86,4.17
		c4.85,1.27,4.22-0.23,6.96-2.21C1232.9,805.69,1227.81,805.35,1225.06,805.69z M848.41,692.35c-3.82,3.03-8.21,7.47-13.62,17.19
		c-5.4,9.72-4.84,8.69-10.07,14.07c-5.22,5.39-2.61,4.16,13.62,7.3c16.23,3.12,14.91,5.56,18.65,4.52c3.72-1.04,4.48,2.07,4.48,5.39
		c0,3.3,3.53,1.38,5.21-3.82c1.68-5.21-1.68-14.59-5.03-19.97c-3.36-5.39-4.12-5.39-9.33-4c-5.21,1.39-3.55-1.21-5.4-5.38
		c-1.87-4.17-4.86-0.87-0.38-7.12C851.03,694.26,852.14,689.41,848.41,692.35z M352.05,681.24c0,5.16,5.46,14,9.57,16.91
		c4.1,2.89,3.24,1.28,1.37-4.87c-1.87-6.13-0.37-6.13-1.25-10.07C360.87,679.27,352.05,679.39,352.05,681.24z M379.27,709.49
		c1.07,1.11,4.35,5.79,10.06,9.61c5.72,3.82,7.22,4.28,13.18,6.02c5.97,1.74,8.58-0.58,4.72-4.05c-3.85-3.48-0.62-3.13-7.58-4.75
		c-6.97-1.61-8.44-1.03-11.94-3.24C384.24,710.89,376.91,707.06,379.27,709.49z M227.68,651.89c-4.48-1.02-6.25-1.21-9.33,1.21
		c-3.07,2.43-3.91,4.52-2.23,7.21c1.68,2.69,0.65,1.21,4.56-1.48c3.93-2.7,2.07-3.04,7-4.26c4.95-1.21,3.92-2.87,3.92-2.87
		S230.4,652.5,227.68,651.89z M226.1,645.9c-3.02,1.81-4.02,3.3-0.66,2.6c3.36-0.7,2.89-2.6,5.03-2.17
		c2.16,0.43,2.89-0.43,2.89-0.43S229.27,643.99,226.1,645.9z M140.03,632.09c-4.1,2-7.99-0.34-5.45,1.17
		c2.52,1.53,5.97,2.95,8.67,2.65c2.71-0.3,4.49-0.34,3.5-1.65c-0.98-1.3-1.25-1.64-1.3-2.99
		C145.34,629.44,144.14,630.1,140.03,632.09z M1516.36,1197.95c-4.73,10.43-14.68,5.33-22.64,12.97c-7.95,7.64-6.72,5.33-0.75,15.98
		c5.97,10.65-4.96,9.49-7.72,22c-2.73,12.5,3.24,10.19,6.47,20.84c3.25,10.64,4.73,7.41,10.7,6.02c5.96-1.39,10.19-4.17,10.19-4.17
		s1.01-9.26,4.97-22.92c3.98-13.66,6.71-23.62,7.46-32.65c0.75-9.03,1.49-15.51,3.49-12.74c1.98,2.78,2.23,2.78,2.23-1.62
		c0-4.4-2.39-16.77-6.21-19.68C1517.84,1176.88,1521.08,1187.53,1516.36,1197.95z M1523.33,485.69c-6.52,1.49-9.61,5.48-4.86,7.03
		c4.76,1.56,4.29,0.7,12.13-2.08C1538.43,487.86,1529.75,484.21,1523.33,485.69z M1645.16,367.37c-2.22-3.48-4.21,1.16-27.09,11.12
		c-22.89,9.95-22.64,1.38-44.02,18.29c-21.39,16.91-16.66,14.81-17.91,25.01c-1.25,10.18-6.21,5.78-8.21,15.04
		c-1.98,9.26-12.92,9.73-7.46,17.37c5.48,7.64,12.68,12.04,24.11,15.28c11.45,3.24,14.67-0.23,12.2-1.39
		c-2.49-1.16-11.19-14.82-9.45-30.33c1.74-15.51,7.46-13.2,12.44-18.99c4.97-5.79,17.9-20.84,26.36-25.94
		c8.22-4.95,30.09-11.87,41.11-15.66c0.31-0.11,0.7-0.09,0.91-0.31C1656.85,367.14,1647.4,370.84,1645.16,367.37z M1583.5,471.45
		c-2.71,0.38-3.98,0.47,1,5.33c4.97,4.86,9.32,8.57,7.7,2.08C1590.58,472.37,1585.99,471.1,1583.5,471.45z M1665.18,424.33
		c-3.63-1.7-5.58-3.48-6.46-0.7c-0.87,2.78,4.11,6.49,8.95,7.41C1672.51,431.97,1668.66,425.95,1665.18,424.33z M809.18,715.74
		c-5.53-2.77-10.93-4.98-14.54-4.98c-3.6,0,0.75,3.81,6.46,6.94C806.84,720.83,812.42,717.36,809.18,715.74z M796.02,739.02
		c0.3-4.59-3.06,5.27,1.05,7.47c4.11,2.2,6.23,2.77,8.84,0.11c2.61-2.66,0.48-0.98-3.12-1.61
		C799.19,744.34,795.77,742.84,796.02,739.02z M2425,579.47c-6.71,0.7-11.75-1.22-11.75-1.22s-0.38,5.39-2.42,7.99
		c-2.07,2.6-0.57,5.39-0.57,5.39s-6.71-2.95-10.62-4.34c-3.92-1.39-7.46-0.17-9.71-6.08c-2.24-5.9-8.94-4.85-14.17-4.85
		c-5.22,0-3.72-6.77-3.72-6.77s0,0-3.17,0.16c-3.18,0.18-2.61,7.82-6.71,10.25c-4.12,2.43-16.98,4-16.98,4s8.21,5.9,9.9,10.76
		c1.66,4.86,4.84,9.55,4.84,9.55s-0.75,2.26-10.64,0.34c-9.89-1.9-9.31,1.92-19.95,6.25c-10.63,4.34-22.75,10.95-25.74,13.38
		c-2.99,2.43-3.17,1.04-12.49-1.21c-9.32-2.26-11.18,2.6-13.62,3.82c-2.42,1.21-1.48-5.56-1.48-5.56s-3.36,0-7.47,2.08
		c-42.51,21.59-13.19,20.46-14.54,24.82c0,0.02-4.48,16.85-4.48,16.86c-6.25,18.61-10.58,8.86-15.85,23.61
		c-16.78,46.89-26.49-7.23-26.49-19.62c0-7.65-1.67-17.54,3.18-19.8c41.72-19.43,3.91-2.7,43.08-29.52
		c12.69-8.68,5.78-13.9,8.57-16.32c2.8-2.43,7.28-3.13,7.28-3.13s0,0-6.9-0.69c-6.9-0.69-7.09,0.87-12.5,6.77
		c-5.4,5.9-9.69,6.95-8.58,2.43c1.12-4.51,1.3-9.2-2.79-6.76c-4.1,2.43-5.79,2.07-13.43,3.65c-7.66,1.56-15.85,5.2-22.75,13.89
		c-6.9,8.69-2.98,7.64-0.75,9.72c2.23,2.08-11.01,1.56-17.34,1.05c-6.35-0.52-3-1.74,0.74-2.96c3.73-1.22-5.6-2.26-13.81-3.99
		c-8.2-1.74-5.03,1.39-9.87,3.3c-4.85,1.92-4.67-1.73-7.09-2.25c-2.43-0.52-13.24-1.21-20.88-2.09c-7.65-0.86-7.09,0.52-9.14,3.13
		c-2.06,2.61-16.22,15.12-22.38,22.24c-6.16,7.12-13.8,8.68-20.7,15.28c-6.9,6.59-8.02,6.25-2.43,7.3c5.59,1.03,6.35,0.51,7.27,5.72
		c0.94,5.21,3.55,6.94,9.52,6.94c5.96,0,4.29,1.57,5.4-2.95c1.12-4.52-1.49-9.72,3.55-5.73c5.03,4,9.13,6.95,10.62,12.68
		c1.5,5.73-0.38,9.9-2.98,19.46c-2.62,9.54-3.54,23.27-7.09,30.21c-3.54,6.94-6.34,12.16-10.26,19.8
		c-3.91,7.64-22.94,26.92-27.22,28.65c-4.3,1.73-7.08,1.91-9.14-1.91c-2.05-3.82-3.54-3.13-8.4,1.21
		c-4.84,4.35-7.08,6.95-8.94,13.89c-1.87,6.95-5.98,6.95-10.26,12.16c-4.28,5.21-5.4,4-2.24,9.9c3.17,5.9,8.39,12.16,8.95,17.88
		c0.56,5.74-2.62,14.07-4.66,17.73c-2.06,3.64-11.75,5.38-11.57,3.64c0.2-1.74,0.37-10.42,0-15.45c-0.38-5.03-4.11-5.03-2.8-6.6
		c1.32-1.56,6.72-4.16,2.8-7.82c-3.92-3.64-6.71-0.52-8.39-4.85c-1.68-4.35,0.75-7.82-0.18-9.38c-0.94-1.57-3.74-3.3-9.52-3.82
		c-5.78-0.53-7.09,5.21-8.4,0.16c-1.3-5.03,0.57-5.55-2.04-7.63c-2.62-2.08-4.85-0.7-11.55,5.03c-6.72,5.73-8.03,4.52-13.63,6.94
		c-5.59,2.44-5.59,3.82-4.29,5.74c1.31,1.91,5.97,10.24,9.88,11.11c3.92,0.88,6.72-1.74,12.68-1.74c5.98,0,7.09,0.87,5.6,3.12
		c-1.5,2.26-5.6,4.53-12.86,11.81c-7.27,7.3-5.05,5.91-2.61,8.86c2.43,2.95,5.97,6.59,8.57,12.33c2.62,5.72,0,7.8-0.37,11.1
		c-0.38,3.31-0.93,8.35,3.92,13.56c4.84,5.2,1.48,3.47,0.93,5.38c-0.55,1.91-8.76,16.84-12.49,24.32
		c-3.74,7.46-3.74,8.16-15.85,16.67c-12.13,8.51-17.54,9.38-24.06,10.58c-6.53,1.22-12.12,3.13-15.48,4.53
		c-3.35,1.39-2.06,4.16-2.41,5.9c-0.39,1.74-3.55,0.17-3-2.43c0.57-2.6,0.2-4.52-1.48-5.21c-1.68-0.7-6.9-2.79-12.31,2.43
		c-5.41,5.21-11.95,5.56-14.18,12.17c-2.23,6.59-1.85,4.34,0.57,7.12c2.41,2.77,14.17,14.07,16.96,20.14
		c2.8,6.08,3.36,10.61,3.55,17.2c0.18,6.6-13.44,18.76-19.4,22.75c-5.97,3.99-7.28,7.81-6.35,1.56c0.93-6.25-2.61-9.9-6.9-14.58
		c-4.29-4.69-17.34-8.51-19.77-9.04c-2.42-0.52,0.93-4.33-0.75-4.16c-1.66,0.18-5.58-0.87-5.03,5.21c0.55,6.08-3.91,4.17-4.84,10.25
		c-0.94,6.08-2.06,12.32,1.86,11.81c3.91-0.53,3.17,5.39,6.16,11.99c2.98,6.59,1.85,2.95,9.32,9.03c7.47,6.07,5.59,5.03,7.28,11.12
		c1.66,6.08,1.11,9.55,4.85,15.11c3.71,5.56,3.91,6.77-2.25,3.64c-6.16-3.12-11.18-6.94-13.62-10.76c-2.43-3.82-3.9-13.55-5.4-18.41
		c-1.5-4.86-11.56-10.59-14.91-14.07c-3.36-3.48-1.31-6.25,0.37-14.24c1.67-7.99-0.75-15.63-1.31-20.49
		c-0.55-4.87-4.47-18.5-6.35-23.1c-1.86-4.6-1.11-3.99-4.01,0c-2.89,4-5.12,6.43-7.92,6.43c-2.8,0-6.9-0.44-6.53-2.26
		c0.38-1.82,3.17-8.76,2.34-11.37c-0.85-2.6-3.46-10.95-7.37-13.9c-3.92-2.95-8.4-7.03-10.91-13.89c-2.52-6.85-3.17-4.86-8.02-1.3
		c-4.85,3.56-15.95,3.99-21.27,4.43c-5.31,0.43-0.93,3.04-2.23,5.65c-1.31,2.61-7.55,5.99-20.14,19.1
		c-12.59,13.11-14.49,13.54-17.75,14.94c-3.27,1.38-5.3,0.95-5.19,6.33c0.09,5.39,0.58,8.31-0.04,13.12
		c-0.62,4.8-2.05,6.77-3.43,9.84c-1.35,3.07-2.84,8.62-3.28,11.53c-0.43,2.89-3.24,6.25-7.34,9.2c-4.1,2.95-4.1,2.43-5.97-1.91
		c-1.86-4.34-11.56-21.01-19.39-36.64c-7.84-15.63-5.97-18.41-6.72-22.93c-0.75-4.52-0.89-31.62-0.56-33.69
		c0.2-1.16-3.79,3.18-4.91,5.38c-1.12,2.21-1.06,4.87-5.53,5.27c-4.48,0.41-5.41,0.47-9.63-3.76c-4.23-4.22-6.17-6.59-5.43-6.48
		c0.75,0.12,5.6-0.47,8.41-1.85c2.79-1.39,1.85-2.9,1.85-2.9s-3.03,0.34-6.65,0.52c-3.62,0.17-1.99-0.81-6.77-2.72
		c-4.79-1.91-5.85-2.08-6.66-4.22c-0.81-2.14-1.98-5.16-2.67-6.78c-0.68-1.61-1.24-1.74-2.04-3.75c-0.81-2.02-3.11,0.34-8.27,0.46
		c-5.16,0.11-3.98,0.34-10.2,2.78c-6.21,2.43-7.15,1.57-14.18,1.34c-7.03-0.23-11.93-3.25-15.48-4.46c-3.54-1.21-4.1-0.7-9.32-1.45
		c-5.22-0.75-4.1-3.41-5.41-5.62c-1.3-2.2-3.48-2.72-10.32-2.2c-6.82,0.52-7.08,0.18-10.93-0.87c-3.85-1.03-4.17-2.43-7.4-5.67
		c-3.23-3.25-2.17-0.69-4.29-2.38c-2.11-1.67-4.22-3.98-5.9-8.5c-1.68-4.52-1.3-5.5-3.24-7.58c-1.93-2.08-1.8-1.57-7.84-1.57
		c-6.03,0-3.28,0.4-4.03,0.81c-0.75,0.41-2.61,3.07-4.29,5.15c-1.67,2.08,1.36,4.98,3.79,7.82c2.43,2.84,0.31,2.54,4.17,6.83
		c3.85,4.29,2.54,3.88,5.28,9.84c2.73,5.96,4.48,7.47,5.09,9.26c0.63,1.79,1.19-0.7,1.81-2.32c0.62-1.62-0.25-7.41-0.25-7.41
		s1.18,2.43,2.23,6.72c1.06,4.28,0.31,4.34,1.06,7.07c0.75,2.72,0,2.36,4.66,2.36c4.67,0,7.52,0.18,12.68-1.03
		c5.16-1.21,7.39-5.9,9.81-7.3c2.44-1.39,2.44-6.26,4.04-5.73c1.61,0.52,0.07,5.73,1.56,9.14c1.49,3.42,1.86,2.2,5.48,3.71
		c3.59,1.51,4.59,2.38,8.26,3.76c3.67,1.39,1.18,1.57,3.17,5.21c1.98,3.65,1.87,1.62,3.8,2.89c1.94,1.27,1.18,0.34-0.19,4.69
		c-1.36,4.35-1.62,4.4-4.85,7.93c-3.24,3.53-3.24,2.43-3.73,2.32c-0.49-0.11-1.49-2.61-1.49-2.61s-2.06,4.22-2.36,9.15
		c-0.31,4.92,1.62,3.12-4.3,5.49c-5.9,2.37-9.45,3.36-11.74,5.33c-2.3,1.97-2.3,4.57-3.61,5.85c-1.3,1.27-3.12,0.11-7.08,1.5
		c-3.98,1.39-2.87,1.1-6.22,3.66c-3.35,2.54-0.38,2.31-4.66,3.93c-4.3,1.62-12.06,5.39-15.98,5.8c-3.92,0.4-3.11,1.44-4.1,2.89
		c-1,1.45-1.07,2.2-6.03,2.95c-4.97,0.75-11.18,1.46-14.24,2.96c-3.05,1.5-7.52,4.86-10.75,4.22c-3.24-0.64-2.36-0.75-3.42-3.65
		c-1.06-2.89-1.62-4.98-2.12-9.72c-0.49-4.75-2.18-11.98-4.92-16.55c-2.73-4.57-2.67-4.87-5.65-9.67c-2.98-4.8-4.98-8.85-7.58-10.71
		c-2.61-1.85-3.91-1.97-5.16-3.35c-1.24-1.39-0.5-6.14-1.8-10.19c-1.3-4.05-2.18-7.99-4.11-10.25c-1.93-2.26-4.91-4.85-7.58-9.66
		c-2.66-4.81-2.85-5.34-6.7-12.74c-3.87-7.41-5.24-8.34-7.78-13.31c-2.55-4.99-0.88-4-1.8-6.95c-0.94-2.95-3.36,4.8-5.28,6.31
		c-1.93,1.51-2.92,0.75-4.48-3.65c-1.55-4.39-2.87-8.27-4.04-6.53c-1.19,1.73-2.12,3.47-0.51,8.17c1.62,4.67,2.38,3.69,4.48,8.15
		c2.12,4.46,7.89,15.64,10.25,20.27c2.36,4.62,1.44,2.37,3.62,9.38c2.18,7,3.41,7.87,6.33,10.76c2.94,2.9,2.44,1.39,3.74,6.14
		c1.31,4.75,0.81,10.31,1,13.21c0.18,2.89,1.79,4.4,5.28,7.29c3.48,2.89,1.74,1.85,3.35,4.92c1.62,3.07,3.23,7.41,4.17,10.42
		c0.93,3.01,2.05,5.1,4.78,6.43c2.74,1.33,3.48,1.51,6.22,2.49c2.73,0.98,1.79,1.67,3.66,4.05c1.87,2.38,5.48,4.16,7.72,7.94
		c2.23,3.76,0.74,2.66,0.61,6.3c-0.12,3.65-1.3,1.97,0.32,3.88c1.62,1.91,4.41,3.48,9.13,6.59c4.73,3.13,0.95,0.94,5.17,0.82
		c4.24-0.12,5.11-1.22,9.64-2.21c4.53-0.98,10.38-2.66,15.97-3.99c5.6-1.33,11.06-2.2,13.93-3.13c2.86-0.92,2.93,2.21,0.74,7.07
		c-2.18,4.86-3.22,8.91-5.09,12.86c-1.87,3.94-2.56,4.28-3.92,7.47c-1.37,3.18-10.58,16.2-12.49,20.32
		c-1.93,4.11-4.23,7.4-7.03,10.83c-2.8,3.41-11.57,9.6-15.67,12.9c-4.1,3.3-3.05,3.3-6.09,7.18c-3.05,3.87-12.31,14.64-14.81,18.46
		c-2.48,3.82-3.9,5.21-5.77,8.97c-1.86,3.76-7.14,9.08-7.46,11.81c-0.31,2.72-3.29,3.07-1.06,5.45c2.25,2.37,3.42,2.77,4.23,5.78
		c0.81,3.02-2.49,6.43-0.37,11.93c2.11,5.5,0.62,1.57,3.8,5.96c3.16,4.39,3.04,7.18,3.34,13.61c0.31,6.42,0.62,12.79-0.37,16.95
		c-0.99,4.16-2.36,6.89-3.79,10.66c-1.43,3.76-9.26,6.31-13.87,8.33c-4.59,2.03-4.4,1.21-6.53,3.76c-2.11,2.55-8.2,7.87-10.25,11.81
		c-2.07,3.94-3.61,3.53-2.8,6.03c0.8,2.49,2.53,5.73,4.66,10.36c2.11,4.62,0.62,4.28,0.12,8.28c-0.5,3.98-0.43,3.36-0.99,8.21
		c-0.57,4.87-6.28,4.98-12.81,7.53c-6.53,2.54-4.16,1.28-4.92,4.8c-0.74,3.53-0.29,10.48-0.56,14.64c-0.25,4.17-2.23,2.49-5.78,7.64
		c-3.55,5.15-4.97,7.59-8.76,13.78c-3.8,6.19-3.48,5.33-8.27,9.21c-4.78,3.87-8.58,4.85-10.68,9.31c-2.12,4.46-4.54,1.51-14.8,4.8
		c-10.26,3.3-2.8,1.69-12.55,2.78c-9.76,1.11-13.25,1.86-18.41,2.78c-5.16,0.93-4.48-0.28-7.65-3.76c-3.16-3.48-3.66-3.2-5.08-6.08
		c-1.44-2.89-0.38-3.59-0.82-8.8c-0.43-5.21-0.87-5.38-2.79-8.63c-1.93-3.23-1.81-3.75-3.92-8.91c-2.11-5.15-3.05-6.6-5.42-10.07
		c-2.35-3.48-3.04-2.37-5.21-4.63c-2.18-2.26-2.24-4.23-2.74-7.41c-0.49-3.18-1.25-10.71-2.3-18.64c-1.06-7.93-0.12-3.71-1.38-7.06
		c-1.23-3.35-2.73-7.41-4.84-11.86c-2.12-4.46-1.37-3.3-4.6-8.81c-3.23-5.5-2.93-4.74-4.98-9.54c-2.05-4.81-2.35-2.67-2.48-4.53
		c-0.13-1.85,1.05-5.21,1.18-8.44c0.11-3.25,1.18-7,1.98-11.99c0.82-4.98-1.11-4.92,1-8.34c2.11-3.42,4.29-6.53,5.67-10.42
		c1.37-3.87,1.17-4.05,1.17-8.97c0-4.92-0.5-4.51-1.98-8.63c-1.49-4.11-2.05-8.92-3.85-15.51c-1.8-6.6-1.75-6.36-2-8.92
		c-0.24-2.54-1.48-8.28-2.73-11.75c-1.24-3.47-1.86-2.08-4.59-4.34c-2.74-2.26-0.93-1.28-3.3-3.77c-2.36-2.49-1.93-3.3-4.23-6.02
		c-2.3-2.72-2.61-2.84-4.48-5.9c-1.85-3.07-0.85-1.21-0.61-6.37c0.24-5.15,1.73-14.99,2.67-20.67c0.93-5.67,1.12-5.38-1.06-7.76
		c-2.18-2.38-3.74-5.79-5.41-6.36c-1.68-0.58-5.72,0.57-11.63,0.46c-5.91-0.12-5.66-1.44-8.2-4.4c-2.56-2.94-5.92-7.06-7.1-8.16
		c-1.18-1.1-3.23-1.05-13.29-0.3c-10.08,0.75-3.98,0.93-10.71,1.98c-6.7,1.04-9.32,4.57-14.48,6.37c-5.16,1.79-6.65,1.33-15.72-0.47
		c-9.07-1.8-13.61,2.09-18.22,4.06c-4.6,1.97-6.84,1.03-10.19-1.28c-3.35-2.31-5.35-4.23-10.51-6.77c-5.15-2.55-3.98-3.93-9.07-6.43
		c-5.11-2.49-3.43-2.61-7.65-6.6c-4.23-3.99-4.53-8.04-7.46-12.22c-2.92-4.17-5.42-10.01-9.33-14.41
		c-3.91-4.4-7.76-13.26-9.69-15.91c-1.93-2.67-3.41-2.9-3.36-4.17c0.06-1.27,3.8-8.74,5.35-12.62c1.56-3.88,1.98-3.36,2.66-5.79
		c0.69-2.43-0.93-9.44-2.42-13.26c-1.5-3.83-3.17-11.87-4.34-15.63c-1.19-3.76,0.61-3.82,2.05-5.95c1.43-2.15,4.85-6.61,8.39-13.2
		c3.54-6.61,5.53-9.85,7.4-12.92c1.86-3.07,6.15-12.49,8.96-15.04c2.79-2.55,9.94-7.64,12.98-9.21c3.04-1.56,5.53-2.43,6.03-3.82
		c0.49-1.39,1.8-12.85,2.67-17.65c0.88-4.81-0.3-7.47,3.17-9.32c3.48-1.85,9.08-5.33,12-6.95c2.91-1.62,3.35-4.05,4.84-7.58
		c1.49-3.54,2.12-7.99,4.36-9.44c2.23-1.44,1.62,0.64,4.53,2.61c2.92,1.97,3.42,2.09,4.79,2.44c1.37,0.35,2.61-1.11,6.03-1.16
		c3.41-0.06,3.79,0.41,5.84,1.51c2.04,1.09,0.93,1.1,6.78-2.49c5.85-3.59,10.5-5.79,18.15-8.63c7.64-2.84,12.86-4.4,16.41-4.8
		c3.54-0.41,1.74,0.05,5.72,1.62c3.98,1.56,4.16,2.26,4.97,1.09c0.81-1.16,3.42-4.4,5.1-4.28c1.68,0.11,3.61,0.81,7.9,1.57
		c4.3,0.75,6.09,0.34,7.84-0.58c1.73-0.93,3.97-2.78,4.4-2.78c0.43,0,4.12,1.28,7.09,2.38c2.98,1.1,3.04,1.27,2.43,2.02
		c-0.62,0.75-1.49,1.57-2.92,4.8c-1.43,3.25-0.75,1.51,0.61,4.93c1.36,3.41,2.36,3.24,1.74,5.73c-0.63,2.49-3.42,4.8-5.47,7.23
		c-2.05,2.44-1.55,2.84,3.48,5.68c5.04,2.83,3.85,2.37,9.51,4.91c5.66,2.55,5.9,1.62,12.49,3.59c6.58,1.97,5.78,2.2,8.08,4.87
		c2.3,2.66,2.43,5.21,6.4,6.59c3.98,1.39,8.21,1.39,10.51,2.84c2.3,1.44,4.17,3.53,7.28,4.12c3.1,0.57,3.09,0.98,4.59-1.28
		c1.5-2.25,2.73-4.28,2.18-5.44c-0.57-1.16-2.25-2.95-1.88-4.05c0.38-1.1,2.99-5.49,3.8-6.82c0.82-1.34,2.87-1.69,7.78-1.92
		c4.91-0.23,8.32-0.93,9.13,1.97c0.8,2.9,0.62,1.57,4.41,3.13c3.8,1.56,4.17,1.56,7.34,2.78c3.17,1.21,1.56,2.94,3.17,2.83
		c1.62-0.11,4.23-0.34,7.21,0.53c2.98,0.87,8.45,3.48,14.23,3.71c5.79,0.23,8.02-1.51,8.9-1.92c0.87-0.39,4.97-5.43,7.4-1.96
		c2.42,3.47,5.58,3.53,11.67,3.18c6.1-0.34,6.16-1.27,7.53-2.84c1.37-1.57,5.03-7.47,6.22-11.52c1.17-4.05,4.4-12.9,5.27-16.91
		c0.88-3.99-0.06-7.12-0.37-9.49c-0.31-2.38,0.25-4,1.19-6.66c0.93-2.66-2.93-1.04-4.49-0.52c-1.55,0.52-1.98-0.81-3.41-1.22
		c-1.43-0.39-2.93-0.75-3.98,1.92c-1.06,2.66-0.57,3.99-6.28,3.71c-5.71-0.3-4.66-0.64-6.53-2.67c-1.86-2.02-5.03-2.54-7.59-3.3
		c-2.54-0.75-2.79-0.64-2.98,0.98c-0.19,1.62-0.25,2.72-2.11,3.36c-1.87,0.64-6.09-0.11-9.64-1.8c-3.54-1.68-4.6-2.48-8.08-5.91
		c-3.48-3.41-2.98-3.41-4.41-8.67c-1.43-5.27-1.43-9.79-0.8-11.35c0.61-1.57,1.62-2.02-1.06-1.21c-2.68,0.8-4.48,1.26-2.68-2.72
		c1.81-4,3.48-4.17,5.35-4.7c1.86-0.52,4.72-0.57,8.26-0.8c3.54-0.24,6.27-2.02,7.52-2.55c1.25-0.53,3.8-1.39,2.49-1.74
		c-1.31-0.34-5.22-0.75-4.54-1.85c0.68-1.1,1.12-1.04,3.23-1.27c2.12-0.24,5.41-0.35,8.22-0.52c2.79-0.18,4.47,0.34,5.41-1.34
		c0.93-1.68,2.1-4.17,4.28-5.5c2.18-1.33,4.54-0.64,10.26-0.87c5.71-0.23,4.84,1.16,6.71,2.49c1.87,1.33,3.11,0.69,5.54,1.16
		c2.42,0.47,0.93,1.91,2.79,2.66c1.87,0.75,5.29,1.51,9.44,2.84c4.17,1.33,1.43,0.75,6.53,0.75c5.1,0,4.92,0.05,8.96-0.64
		c4.03-0.7,5.72-2.2,8.58-4.23c2.86-2.02,0.87-6.43-0.18-9.84c-1.07-3.41-5.54-5.61-7.59-7.17c-2.05-1.57-6.46-6.55-8.82-8.57
		c-2.38-2.03-5.11-2.61-7.71-4.05c-2.61-1.46-7.27-3.83-7.71-5.74c-0.43-1.91,1-1.96,4.85-2.89c3.85-0.93,2.62-1.74,3.35-3.77
		c0.75-2.02,1.07-1.97,4.23-3.12c3.17-1.16-3.66-3.59-4.6-4.91c-0.93-1.34,2.12-0.94,5.29-1.69c3.17-0.75,3.43-2.25,3.85-3.59
		c0.44-1.33,0.3-1.97-3.42-1.9c-3.72,0.05-8.45,1.62-14.73,3.3c-6.28,1.67-3.41,1.74-7.21,4.69c-3.8,2.95-4.04,1.67-3.54,3.3
		c0.5,1.62,0.74,3.18,4.59,5.21c3.86,2.02,2.23,2.08,3.3,2.38c1.06,0.28,3.67,0.69,2.48,1.04c-1.18,0.34-2.25,2.19-3.98,2.19
		c-1.74,0-2.49,1.8-5.47,3.48c-2.98,1.68-4.3,1.91-6.46,2.26c-2.17,0.34-3.73-0.35-3.43-4.06c0.32-3.71-1.11-1.21-3.42-2.07
		c-2.3-0.88-3.17-1.86-3.17-1.86s2.3-0.81,4.61-2.25c2.31-1.44,3.35-2.31,4.48-5.15c1.11-2.84-2.49-1.28-5.1-1.62
		c-2.61-0.35-1.87-0.58-4.41-0.93c-2.54-0.34-3.54-2.37-3.54-2.37s1.17,0.46,3.35,0.23c2.17-0.23,1.69-0.81,2.48-1.39
		c0.81-0.57,1.44-1.1,0.81-1.1c-0.62,0-3.3,0.29-5.09,0.17c-1.81-0.11-2.87-0.4-5.48,0c-2.61,0.4-1.56,1.39-3.42,2.6
		c-1.87,1.22-1.93,1.62-2.92,3.43c-0.99,1.79-1.31,1.5-1.99,2.66c-0.68,1.16-0.62,4.05-0.62,6.03c0,1.96-0.5,2.6-1.68,4.22
		c-1.18,1.62-1.18,0.93-3.17,1.9c-1.98,0.99-0.68,1.69-0.93,3.66c-0.25,1.97-0.93,2.72-1.12,5.27c-0.18,2.54-1.18,2.66-2.73,4.45
		c-1.56,1.79-2.43,1.79-2.55,3.65c-0.13,1.85-0.43,2.66,0,6.25c0.43,3.59,1.43,2.66,4.23,6.31c2.79,3.65,4.29,2.26,3.29,4.11
		c-0.99,1.85-0.8,1.16-4.23,0.75c-3.42-0.41-3.97,0.11-6.45,2.49c-2.48,2.37-3,3.71-4.3,4.57c-1.3,0.86-0.87-1.74-1.36-2.96
		c-0.5-1.21-6.22-1.62-10.14-2.78c-3.92-1.16-4.98-1.85-5.97-1.85c-1,0-2.51-0.23-6.62,2.03c-4.1,2.25-3.17,3.56-2.89,6.51
		c0.28,2.95,3.53,3.56,2.61,10.5c-0.94,6.95,3.45,3.74,5.31,7.99c1.87,4.26,0.19,3.9-0.93,4.43c-1.12,0.53-2.24,4.17-3.08,7.64
		c-0.84,3.48,0.09,3.91-0.93,3.74c-1.03-0.17-2.23,0.61-4.19-2.26c-1.96-2.86-3.54-0.16-3.83-1.82c-0.27-1.66-2.71-4.43-1.77-8.25
		c0.93-3.83,2.43-4.17-0.94-6.17c-3.35-2-2.51-2.26-4.1-6.35c-1.58-4.08-1.96-4.85-5.03-8.59c-3.09-3.73-2.81-2.69-1.97-6.43
		c0.84-3.73,1.49-8.59-0.38-11.2c-1.86-2.61-9.59-9.81-15.95-13.2c-6.34-3.38-7.64-0.78-10.44-6.17c-2.8-5.38-4.08-11.03-8.76-14.33
		c-4.66-3.3-2.33-3.56-6.8-1.9c-4.48,1.65-4.57,2.34-4.2,3.64c0.38,1.3,1.39,3.05,0.74,6.61c-0.66,3.55-1.58,2.43,3.08,5.2
		c4.67,2.79,2.71,2.18,5.03,7.3c2.34,5.12,2.71,6.08,4.58,8.17c1.87,2.08,2.52,3.9,7.18,4.95c4.66,1.04,3.91-0.26,5.12,0.87
		c1.22,1.12-3.26,1.56-2.42,2.08c0.84,0.53,1.87,2,5.78,4.43c3.92,2.43,7.94,4.95,8.96,6.86c1.02,1.91,4.47,9.11-0.57,3.81
		c-5.04-5.3-5.12-2.85-6.53,0.79c-1.4,3.65,1.29,6.43,1.12,9.12c-0.19,2.69-2.52,1.66-4.12,3.82c-1.58,2.17-2.42,4.77-4.29,6.17
		c-1.86,1.39-1.3-1.56-2.32-1.56c-1.03,0-1.4,1.3-2.71,3.81c-1.31,2.52,0,3.57,0.55,6.95c0.56,3.39,1.5,3.65-2.14,3.48
		c-3.63-0.17-2.8-3.57-6.15-5.82c-3.36-2.26-5.31-1.48-8.12-3.22c-2.8-1.72,1.21-2.16,8.21-3.03c6.99-0.87,7.83-1.56,9.98-3.21
		c2.14-1.66,1.39-2.09,3.73-5.39c2.33-3.3,0-4.61-1.59-8.61c-1.58-3.98-4.57-5.8-5.59-6.59c-1.03-0.78-3.36-3.12-5.4-5.38
		c-2.06-2.26-4.21-2.61-7.75-3.48c-3.54-0.87-2.89-4.08-4.84-5.03c-1.96-0.95-3.92-3.74-8.4-7.9c-4.47-4.17-2.79-7.3-4.85-10.94
		c-2.05-3.66-4.1-6.43-8.58-6.43c-4.47,0-7.83,3.12-12.31,7.46c-4.48,4.34-3.54,6.43-8.76,3.13c-5.22-3.3-7.08-2.95-10.82,0.17
		c-3.71,3.12-4.47,6.26-4.47,12.5c0,6.25-4.48,3.65-8.02,5.38c-3.54,1.74-6.71,6.08-12.12,16.33c-5.41,10.25,0.37,5.38-0.75,8.85
		c-1.12,3.48,0.38,6.26-4.66,10.76c-5.04,4.52-2.8-0.52-5.78,3.13c-2.98,3.65-7.1,6.6-14.18,5.73c-7.09-0.87-5.04,1.91-9.52,2.95
		c-4.47,1.04-6.9,2.61-5.78-2.44c1.12-5.04,0.19-4.34-8.39-3.99c-8.58,0.34-11.57,2.61-10.82,1.39c0.75-1.22,1.12-3.3,2.07-8.17
		c0.94-4.86,2.23-6.43,0.94-6.43c-1.31,0-4.12,0.7-2.06-7.99c2.06-8.69,2.8-10.25,1.86-15.28c-0.93-5.03,0.36-11.81-0.74-14.77
		c-1.12-2.94,2.23-5.9,0.74-7.47c-1.49-1.56-3.17-3.64-2.05-3.64c1.11,0,5.77,0.17,11.75,1.21c5.98,1.04,12.12-0.87,15.67-0.53
		c3.53,0.35,11,1.91,18.46,3.13c7.46,1.21,7.27-1.05,6.53-11.99c-0.75-10.94,0.56-15.97-1.69-18.23c-2.24-2.26-4.65-2.08-7.08-5.03
		c-2.43-2.95-0.57-7.3-5.78-8.86c-5.22-1.57-11.02-0.34-8.21-1.39c2.79-1.05,3.91-1.39,0.93-3.65c-3-2.25-3.75-4.68-1.5-5.04
		c2.24-0.35,8.58-0.35,8.58-0.35s0.57,3.13,3.93,1.74c3.35-1.39,7.64-2.77,6.71-5.03c-0.94-2.26-2.61-5.03-2.07-5.03
		c0.57,0,1.88,3.12,8.95,3.12c7.09,0,6.53-1.04,5.98-3.99c-0.57-2.95,4.67-2.78,8.21-5.21c3.53-2.43-1.31-5.21-0.56-7.46
		c0.74-2.26,4.84-3.66,12.12-4.16c7.27-0.52,5.96-1.75,5.22-2.61c-0.75-0.87,0.19-4.52,0.74-9.21c0.57-4.7-0.55-6.26,3.18-8.51
		c3.73-2.25,2.61-1.39,10.26-2.09c7.64-0.69,2.98-2.43,4.28-2.77c1.32-0.35,10.45-2.61,12.13-3.31c1.68-0.69,1.5-0.51,0-3.82
		c-1.5-3.29-3.54-5.2-5.21-20.48c-1.68-15.28-1.31-15.28,8.01-18.06c9.33-2.78,7.28-1.91,6.53,6.6c-0.74,8.51-4.85,8.51-5.78,14.76
		c-0.93,6.25-0.18,10.07,3.73,16.68c3.93,6.6,3.55,3.3,11.94,3.3c8.39,0,6.53,2.08,12.12,3.99c5.6,1.91,3.73-3.47,9.15-5.39
		c5.4-1.9,4.28,1.22,16.96-0.69c4.84-0.73,6.49-0.9,6.86-0.93c-0.39,0.03-1.78,0.04-0.34-0.8c2.98-1.74,3.73-4.86,8.03-5.39
		c4.29-0.52,7.26,1.22,7.07-5.39c-0.18-6.59-2.61-5.55-1.86-10.59c0.75-5.03,0.93-2.77,1.3-6.77c0.38-3.99-0.55-4.69,4.85-6.08
		c5.41-1.39,1.68,4.86,8.2,6.25c6.53,1.39,5.6,2.43,6.72-2.6c1.12-5.03,4.67-11.64,1.48-11.29c-3.17,0.35-3.91-0.17-7.08-4.86
		c-3.17-4.69-5.03-5.73-2.98-5.73c2.04,0,8.94-1.91,18.82-1.57c9.88,0.34,12.69,1.21,13.24,0.17c0.57-1.04-1.67-2.07,1.68-4.17
		c3.36-2.08,14.36,1.04,12.68-0.87c-1.68-1.91-11.37-4.52-17.9-3.47c-6.53,1.03-22.38,2.95-24.81,2.77
		c-2.42-0.16-6.9-1.91-8.02-3.12c-1.11-1.22-4.67-2.09-4.67-7.82c0-5.74,2.06-7.99-1.3-13.54c-3.36-5.56,6.15-10.25,12.68-16.15
		c6.53-5.9,4.85-10.77,8.76-11.12c3.93-0.35,5.43-2.43,3.55-4.35c-1.86-1.9-8.76-8.51-12.13-9.2c-3.35-0.69-8.39-4.52-13.61,4.52
		c-5.21,9.03,0.37,9.9,1.31,14.58c0.94,4.69-7.28,8.17-13.44,12.5c-6.15,4.34-8.38,3.3-10.26,14.41
		c-1.86,11.12-3.73,11.47,3.17,15.28c6.9,3.83,8.21,5.73,5.04,9.03c-3.17,3.31-9.89,3.13-13.99,10.95c-4.1,7.81-2.42,11.63-4.1,15.1
		c-1.68,3.48-6.9,5.03-8.4,8.51c-1.48,3.48-1.48,10.07-7.83,9.03c-6.34-1.05-2.8-9.56-5.6-13.91c-2.8-4.33-5.03-7.98-8.39-13.36
		c-3.35-5.38-0.74-10.59-3.92-13.38c-3.16-2.77-3.92-8.33-3.92-8.33s0,0-1.11,2.61c-1.11,2.61-0.56,4.16-6.9,11.99
		c-6.35,7.81-15.86,8.33-20.52,6.42c-4.66-1.91-3.91-6.42-3.91-12.16c0-5.73-1.12-13.37-0.19-22.4c0.93-9.03,3.55-8.34,13.44-14.24
		c9.88-5.9,10.06-5.56,12.49-9.38c2.42-3.81,9.52-9.21,13.61-12.68c4.11-3.47,11.2-16.67,14.92-26.05
		c3.74-9.37,10.63-15.11,17.34-25.18c6.72-10.07,18.65-18.93,33.94-25.35c15.29-6.43,12.69-7.12,16.22-12.17
		c3.55-5.03,5.05-2.08,11.01-3.3c5.98-1.21,5.03,0-0.94,5.9c-5.96,5.9-8.57,12.16-3.54,7.47c5.04-4.69,8.94-10.25,16.78-9.9
		c7.84,0.34,4.66,0,12.31,3.48c7.65,3.47,8.95,3.81,4.67,6.59c-4.31,2.78-11.58,2.09-11.58,2.09s2.43,5.73,9.51,6.6
		c7.09,0.87,11-5.56,15.67-3.13c4.67,2.43,5.97,4.17-0.38,3.65c-6.34-0.52-8.2,3.47-0.37,6.25c7.84,2.78,8.58,3.12,18.83,4.52
		c10.26,1.39,14.74,8.85,22.56,12.16c7.85,3.3,16.97,0.52,14.37,7.65c-2.62,7.12,2.04,14.06-11.57,17.36
		c-13.61,3.3-13.25-1.05-24.61-4.53c-11.38-3.47-19.39-6.94-19.39-6.94s2.98,4,8.2,8.86c5.21,4.85,5.78,9.37,5.21,18.23
		c-0.56,8.85-2.98,11.29,5.98,15.63c8.95,4.35,7.65,3.12,10.44,2.43c2.8-0.7,7.46-1.57,6.34-2.96c-1.11-1.39-2.05-3.98-5.03-5.38
		c-2.98-1.39-3.16-4.69-0.18-6.26c2.98-1.57,5.77,1.39,12.31,1.04c6.53-0.34,0-2.43,3.17-5.72c3.18-3.3,3.37-8.85,11.01-11.82
		c7.65-2.95,15.84,1.39,17.91-1.9c2.05-3.3,4.29-7.12,0-12.16c-4.3-5.04-7.65-6.76-5.04-9.21c2.61-2.43,7.84-8.85,10.26-5.21
		c2.42,3.65,8.58,7.65,0.75,6.95c-7.84-0.69-2.44,11.64,4.66,10.94c7.08-0.7,6.53-2.95,12.31-5.73
		c5.77-2.79,17.15-11.99,25.17-14.77c8.02-2.78,9.7-2.08,12.86-0.69c3.17,1.39,3.17,3.99,11.95,2.25
		c8.76-1.74,11.37-3.82,19.58-5.21c8.21-1.38-0.56,2.96,3.17,4.16c3.74,1.22,4.11,2.26,6.91,0.36c2.8-1.92,11.75-5.04,7.65-8.17
		c-4.12-3.13-7.1-5.21-7.1-5.21s2.98-6.59,10.82-6.07c7.83,0.52,19.76,7.81,27.42,13.03c7.64,5.21,16.97,16.32,16.97,16.32
		s3.34-5.72,0.55-15.28c-2.8-9.54-9.88-7.29-9.88-16.32c0-9.03-6.53-6.61-4.29-13.03c2.24-6.42,8.58-8.86,10.26-17.03
		c1.66-8.15,3.17-14.92,8.94-14.92c5.78,0,18.28,1.73,18.28,1.73s0,7.47-4.67,18.59c-4.66,11.11,2.43,12.33,1.31,25.88
		c-1.11,13.54-1.31,15.28,1.86,18.4c3.16,3.12,9.15,6.95,6.9,12.85c-2.24,5.91-3.36,9.56-11.75,12.86c-8.4,3.3-19.02,1.39-15.12,4
		c3.94,2.59,8.96,4.85,14.55,5.72c5.6,0.87,2.8-0.34,7.27-3.99c4.49-3.65,14.55-10.95,14.18-14.42c-0.37-3.46-5.78-8.85-2.05-11.46
		c3.73-2.6,5.21-6.59,11-3.3c5.79,3.3,11.38,15.63,11.38,15.11c0-0.52-1.12-12.16-8.02-19.09c-6.9-6.95-18.28-0.36-18.28-6.43
		c0-6.08,3.16-14.42,2.42-21.02c-0.75-6.59-3.34-13.2,0.94-18.92c4.29-5.74,4.48-10.25,4.48-10.25s1.86,5.38,0.37,12.15
		c-1.48,6.77,0.75,10.77,3.92,10.77c3.17,0,17.34,0.18,9.7-2.08c-7.64-2.26-9.88-4.35-2.24-8.51c7.65-4.16,7.27-1.39,18.45,1.21
		c11.2,2.61,13.8,4.52,17.54,4.35c3.73-0.17,3.17-0.52,1.86-3.82c-1.29-3.3-2.98-5.56-6.53-7.82c-3.55-2.26-5.96,0.52-7.08-2.95
		c-1.11-3.48-3.16-12.16-4.11-15.45c-0.93-3.3,2.8-0.7,8.76-0.7c5.97,0,22.19-0.87,34.7-1.21c12.49-0.34,0.19-13.37-0.75-22.58
		c-0.93-9.2,23.13-9.55,34.87-11.28c11.76-1.74,25.37-1.21,47.37-6.43c22-5.21,7.84-4.34,11-10.59c3.18-6.26,8.58-7.3,15.11-7.3
		c6.53,0,12.5,1.21,10.08,2.08c-2.43,0.87-9.7,4.51,1.67,6.95c11.38,2.43,8.4,2.25,2.43,4.34c-5.96,2.08-0.93,5.9,10.62,5.9
		c11.56,0,4.66-1.04,2.8-4.86c-1.85-3.82,1.69-2.44,11.2-0.87c9.5,1.56,13.24,3.13,18.46,7.98c5.21,4.87,6.15,3.66,8.01,10.43
		c1.88,6.77-0.18,5.72-8.2,11.98c-8.03,6.26-12.86,6.26-24.43,13.55c-11.57,7.29-8.77,11.11-15.1,15.97c-6.34,4.86-4.66,3.48,8.76,0
		c13.43-3.48,20.7-5.73,27.61-5.03c6.89,0.69,10.25,3.3,15.47,3.3c5.22,0-0.37,0.87,16.04,0.87c16.41,0,13.97,0,8.01,4.69
		c-5.97,4.69,1.12,6.08,8.4,6.08c7.28,0,16.22,0.34,22.93-0.7c6.73-1.04,0.94-6.08,8.96-6.43c8.01-0.34,10.63-1.04,19.2-1.04
		c8.58,0,5.97,3.48,8.95,6.6c2.98,3.12,7.08,5.21,4.29,11.46c-2.79,6.26-4.29,6.42-2.62,14.93c1.69,8.51,5.98,9.72,11.2,11.29
		c5.21,1.57,5.21-7.63,10.26-10.76c5.03-3.12,6.16,6.25,11.94,4.86c5.79-1.38,12.31-0.7,17.34,0.86c5.03,1.57,9.32,2.44,16.41,0.88
		c7.08-1.57,4.84-4.34,2.43-8.68c-2.43-4.35-2.62-4,1.86-8.51c4.48-4.52,7.46-2.26,22,1.56c14.55,3.82,9.89,3.82,18.09,6.08
		c8.21,2.26,5.6,1.74,18.09,7.47s10.08,12.5,15.85,16.14c5.78,3.66,6.16,0,17.73-1.03c11.55-1.05,11.37,1.39,24.05,4.69
		c12.67,3.3,9.31,7.46,9.31,11.12c0,3.64-3.53,6.43,4.3,8.16c7.83,1.74,11,3.3,17.72,1.57c6.71-1.74,0.75,1.73,15.67,1.9
		c14.91,0.18,9.89-1.73,14.36,1.39c4.47,3.13,5.59,9.38,12.86,8.69c7.26-0.7,6.71-0.53,3.73-6.95c-2.98-6.43-4.85-7.48-0.56-7.3
		c4.28,0.17,13.05,2.08,29.27,4.69c16.23,2.61,16.78,5.56,30.04,13.9c13.23,8.34,16.95,9.03,26.66,16.5
		c3.7,2.85,4.43,3.66,4.51,3.88c0.25,0,1.28,0.3,5.01,2.02c10.43,4.86,8.58,3.3,17.53,7.64c8.94,4.34,16.58,10.42,16.58,10.42
		S2431.72,578.77,2425,579.47z M1554.91,755.98c0,0-0.99,1.33,4.23-2.85c5.22-4.16-2.44-0.17-5.42-1.04
		c-2.98-0.87-3.92-2.26-2.98-6.07c0.93-3.83-0.38-3.83-3.55-8.86c0,0-1.68-1.03-5.21,1.04c-3.54,2.09-5.59-2.07-9.89-0.52
		c-4.29,1.56-8.95,0.87-11.57,7.3c-2.6,6.43-5.59,2.25-6.52,7.46c-0.94,5.21-8.96,7.99-8.96,7.99s3.18,3.13,5.6,6.08
		c2.42,2.95,0.75,1.05,3.17,10.77c2.43,9.72,4.12,8.85,7.47,10.24c3.36,1.39,8.58,4.7,8.58,4.7s-3.17-1.92-3.17,3.3
		c0,5.21-5.04,8.85-4.48,16.49c0.56,7.64-6.89,14.76-0.93,15.46c5.96,0.69,4.1,3.3,10.62,5.03c6.53,1.74,10.25,2.95,19.78,2.95
		c9.5,0,4.28-3.65,2.98-9.03c-1.31-5.38-2.05-8.85-2.42-14.76c-0.38-5.9-2.61-4.35-4.11-7.98c-1.49-3.66,0.75-5.74,5.21-5.74
		c4.48,0,5.05-0.17,2.62-4.16c-2.43-4-0.92-5.56-3.93-7.3c-2.97-1.74-4.28,5.74-4.28,5.74s-1.86-1.74-1.12-9.03
		c0.75-7.3,1.3-3.82-0.93-5.21c-2.25-1.39-3.56,0.34-6.53-4.51c-2.98-4.87-0.37-3.82-3.91-9.72c-3.55-5.9-1.69-2.79,2.23-2.79
		c3.91,0,1.86-0.87,0-2.77c-1.86-1.92-3.16-4.87,1.86-4.52c5.04,0.35,11.57,1.39,13.99,1.57
		C1555.77,755.39,1554.91,755.98,1554.91,755.98z M859.15,488.39c-1.72,2.97,2.92,6.77,6.28,5.59c3.36-1.18,4.46,0.13,6.37-1.4
		c1.91-1.52,2.09-3.76-0.18-5.97c-2.27-2.21-1.35-3.49-1.73-3.73C865.6,480.26,860.88,485.43,859.15,488.39z M1781.06,296.92
		c-5.04,0.17-10.64,0.35-5.97,1.91c4.67,1.56,2.8,9.38,11.74,5.03c8.95-4.35,7.09-4.69,13.25-7.3c6.15-2.6,2.59-1.35-4.85-3.3
		C1790.57,292.05,1786.09,296.74,1781.06,296.92z"/>
</g>
</svg>
